<svg width="24" height="24" viewBox="0 0 24 24" fill="none" xmlns="http://www.w3.org/2000/svg">
<path d="M16.125 9.25C16.125 10.344 15.6904 11.3932 14.9168 12.1668C14.1432 12.9404 13.094 13.375 12 13.375C10.906 13.375 9.85677 12.9404 9.08319 12.1668C8.3096 11.3932 7.875 10.344 7.875 9.25C7.875 8.15598 8.3096 7.10677 9.08319 6.33319C9.85677 5.5596 10.906 5.125 12 5.125C13.094 5.125 14.1432 5.5596 14.9168 6.33319C15.6904 7.10677 16.125 8.15598 16.125 9.25Z" fill="white"/>
<path fill-rule="evenodd" clip-rule="evenodd" d="M1 12C1 9.08262 2.15893 6.28473 4.22183 4.22183C6.28473 2.15893 9.08262 1 12 1C14.9174 1 17.7153 2.15893 19.7782 4.22183C21.8411 6.28473 23 9.08262 23 12C23 14.9174 21.8411 17.7153 19.7782 19.7782C17.7153 21.8411 14.9174 23 12 23C9.08262 23 6.28473 21.8411 4.22183 19.7782C2.15893 17.7153 1 14.9174 1 12ZM12 2.375C10.1874 2.3751 8.41175 2.887 6.8773 3.85179C5.34285 4.81658 4.11201 6.19504 3.32645 7.82852C2.54089 9.46199 2.23253 11.2841 2.43687 13.0851C2.64121 14.8861 3.34995 16.5928 4.4815 18.0088C5.45775 16.4358 7.60687 14.75 12 14.75C16.3931 14.75 18.5409 16.4344 19.5185 18.0088C20.6501 16.5928 21.3588 14.8861 21.5631 13.0851C21.7675 11.2841 21.4591 9.46199 20.6735 7.82852C19.888 6.19504 18.6571 4.81658 17.1227 3.85179C15.5882 2.887 13.8126 2.3751 12 2.375Z" fill="white"/>
</svg>
