<svg width="24" height="24" viewBox="0 0 24 24" fill="none" xmlns="http://www.w3.org/2000/svg">
<path d="M16.4059 0.0110096C16.3588 -0.0412401 14.6627 0.0316345 13.1867 1.6225C11.7106 3.21199 11.9377 5.03523 11.9709 5.08198C12.0042 5.12873 14.0756 5.20161 15.3979 3.35224C16.7202 1.50288 16.453 0.0646343 16.4059 0.0110096ZM20.9946 16.1438C20.9281 16.0118 17.7753 14.4471 18.0689 11.4386C18.3624 8.43009 20.3881 7.60372 20.42 7.51435C20.4518 7.42497 19.5934 6.4281 18.6837 5.92348C18.0156 5.56805 17.2764 5.36423 16.5195 5.32673C16.3699 5.32261 15.8507 5.19611 14.7831 5.48623C14.0797 5.67736 12.4943 6.2961 12.0582 6.32085C11.6206 6.3456 10.3191 5.60311 8.91921 5.40648C8.02335 5.23461 7.07349 5.58661 6.39364 5.85748C5.71517 6.12698 4.42469 6.89422 3.5219 8.93334C2.61912 10.9711 3.09128 14.1996 3.42913 15.2033C3.76698 16.2071 4.29453 17.8488 5.19177 19.0478C5.98932 20.4008 7.04718 21.3399 7.48888 21.6589C7.93058 21.9779 9.17675 22.1896 10.0408 21.751C10.7358 21.3275 11.9903 21.0842 12.486 21.102C12.9803 21.1199 13.9551 21.3138 14.9534 21.8431C15.7441 22.114 16.4918 22.0013 17.2409 21.6988C17.9899 21.3949 19.0741 20.2427 20.3397 17.9065C20.8197 16.8203 21.038 16.2327 20.9946 16.1438Z" fill="white"/>
</svg>
