<svg width="24" height="24" viewBox="0 0 24 24" fill="none" xmlns="http://www.w3.org/2000/svg">
<path fill-rule="evenodd" clip-rule="evenodd" d="M11.9996 21.0006C11.7344 21.0006 11.4801 20.8953 11.2926 20.7077C11.1051 20.5202 10.9997 20.2659 10.9997 20.0007V6.41615L4.70816 12.7097C4.61519 12.8027 4.50482 12.8764 4.38335 12.9267C4.26188 12.977 4.13169 13.0029 4.00021 13.0029C3.86874 13.0029 3.73855 12.977 3.61708 12.9267C3.49561 12.8764 3.38523 12.8027 3.29227 12.7097C3.1993 12.6167 3.12555 12.5064 3.07523 12.3849C3.02492 12.2634 2.99902 12.1332 2.99902 12.0017C2.99902 11.8703 3.02492 11.7401 3.07523 11.6186C3.12555 11.4971 3.1993 11.3868 3.29227 11.2938L11.2917 3.29438C11.3846 3.20126 11.4949 3.12738 11.6164 3.07697C11.7379 3.02656 11.8681 3.00061 11.9996 3.00061C12.1312 3.00061 12.2614 3.02656 12.3829 3.07697C12.5044 3.12738 12.6147 3.20126 12.7076 3.29438L20.707 11.2938C20.8 11.3868 20.8737 11.4971 20.924 11.6186C20.9743 11.7401 21.0002 11.8703 21.0002 12.0017C21.0002 12.1332 20.9743 12.2634 20.924 12.3849C20.8737 12.5064 20.8 12.6167 20.707 12.7097C20.614 12.8027 20.5037 12.8764 20.3822 12.9267C20.2607 12.977 20.1305 13.0029 19.9991 13.0029C19.8676 13.0029 19.7374 12.977 19.6159 12.9267C19.4944 12.8764 19.3841 12.8027 19.2911 12.7097L12.9996 6.41615V20.0007C12.9996 20.2659 12.8942 20.5202 12.7067 20.7077C12.5192 20.8953 12.2648 21.0006 11.9996 21.0006Z" fill="white"/>
</svg>
