<svg width="24" height="24" viewBox="0 0 24 24" fill="none" xmlns="http://www.w3.org/2000/svg">
<path fill-rule="evenodd" clip-rule="evenodd" d="M3 12.0006C3 11.7354 3.10535 11.4811 3.29287 11.2936C3.48039 11.106 3.73473 11.0007 3.99993 11.0007H17.5845L11.2909 4.70914C11.1979 4.61617 11.1242 4.5058 11.0739 4.38433C11.0236 4.26286 10.9977 4.13267 10.9977 4.00119C10.9977 3.86971 11.0236 3.73952 11.0739 3.61805C11.1242 3.49658 11.1979 3.38621 11.2909 3.29324C11.3839 3.20027 11.4943 3.12653 11.6157 3.07621C11.7372 3.0259 11.8674 3 11.9989 3C12.1303 3 12.2605 3.0259 12.382 3.07621C12.5035 3.12653 12.6138 3.20027 12.7068 3.29324L20.7062 11.2927C20.7994 11.3855 20.8732 11.4959 20.9236 11.6174C20.9741 11.7389 21 11.8691 21 12.0006C21 12.1321 20.9741 12.2624 20.9236 12.3839C20.8732 12.5053 20.7994 12.6157 20.7062 12.7086L12.7068 20.708C12.6138 20.801 12.5035 20.8747 12.382 20.925C12.2605 20.9753 12.1303 21.0012 11.9989 21.0012C11.8674 21.0012 11.7372 20.9753 11.6157 20.925C11.4943 20.8747 11.3839 20.801 11.2909 20.708C11.1979 20.615 11.1242 20.5046 11.0739 20.3832C11.0236 20.2617 10.9977 20.1315 10.9977 20C10.9977 19.8686 11.0236 19.7384 11.0739 19.6169C11.1242 19.4954 11.1979 19.3851 11.2909 19.2921L17.5845 13.0005H3.99993C3.73473 13.0005 3.48039 12.8952 3.29287 12.7077C3.10535 12.5201 3 12.2658 3 12.0006Z" fill="white"/>
</svg>
