<svg width="24" height="24" viewBox="0 0 24 24" fill="none" xmlns="http://www.w3.org/2000/svg">
<path fill-rule="evenodd" clip-rule="evenodd" d="M21 12.0006C21 11.7354 20.8947 11.4811 20.7071 11.2936C20.5196 11.106 20.2653 11.0007 20.0001 11.0007H6.41554L12.7091 4.70914C12.8021 4.61617 12.8758 4.5058 12.9261 4.38433C12.9764 4.26286 13.0023 4.13267 13.0023 4.00119C13.0023 3.86971 12.9764 3.73952 12.9261 3.61805C12.8758 3.49658 12.8021 3.38621 12.7091 3.29324C12.6161 3.20027 12.5057 3.12653 12.3843 3.07621C12.2628 3.0259 12.1326 3 12.0011 3C11.8697 3 11.7395 3.0259 11.618 3.07621C11.4965 3.12653 11.3862 3.20027 11.2932 3.29324L3.29377 11.2927C3.20065 11.3855 3.12677 11.4959 3.07636 11.6174C3.02595 11.7389 3 11.8691 3 12.0006C3 12.1321 3.02595 12.2624 3.07636 12.3839C3.12677 12.5053 3.20065 12.6157 3.29377 12.7086L11.2932 20.708C11.3862 20.8009 11.4965 20.8747 11.618 20.925C11.7395 20.9753 11.8697 21.0012 12.0011 21.0012C12.1326 21.0012 12.2628 20.9753 12.3843 20.925C12.5057 20.8747 12.6161 20.8009 12.7091 20.708C12.8021 20.615 12.8758 20.5046 12.9261 20.3832C12.9764 20.2617 13.0023 20.1315 13.0023 20C13.0023 19.8686 12.9764 19.7384 12.9261 19.6169C12.8758 19.4954 12.8021 19.3851 12.7091 19.2921L6.41554 13.0005H20.0001C20.2653 13.0005 20.5196 12.8952 20.7071 12.7077C20.8947 12.5201 21 12.2658 21 12.0006Z" fill="white"/>
</svg>
