<svg width="24" height="24" viewBox="0 0 24 24" fill="none" xmlns="http://www.w3.org/2000/svg">
<path fill-rule="evenodd" clip-rule="evenodd" d="M5.63627 18.3645C5.44875 18.177 5.3434 17.9227 5.3434 17.6575C5.3434 17.3923 5.44875 17.138 5.63627 16.9504L15.242 7.34472L6.34299 7.34613C6.21151 7.34613 6.08132 7.32024 5.95985 7.26992C5.83838 7.21961 5.72801 7.14586 5.63504 7.05289C5.54207 6.95992 5.46832 6.84955 5.41801 6.72808C5.36769 6.60661 5.3418 6.47642 5.3418 6.34494C5.3418 6.21346 5.36769 6.08327 5.41801 5.9618C5.46832 5.84033 5.54207 5.72996 5.63504 5.63699C5.72801 5.54402 5.83838 5.47028 5.95985 5.41996C6.08132 5.36965 6.21151 5.34375 6.34299 5.34375L17.6559 5.34375C17.7874 5.34358 17.9177 5.36937 18.0392 5.41962C18.1608 5.46988 18.2712 5.54362 18.3642 5.63662C18.4572 5.72963 18.5309 5.84006 18.5812 5.96161C18.6315 6.08315 18.6572 6.21342 18.6571 6.34494V17.6578C18.6571 17.7893 18.6312 17.9195 18.5809 18.041C18.5305 18.1624 18.4568 18.2728 18.3638 18.3658C18.2709 18.4587 18.1605 18.5325 18.039 18.5828C17.9175 18.6331 17.7874 18.659 17.6559 18.659C17.5244 18.659 17.3942 18.6331 17.2727 18.5828C17.1513 18.5325 17.0409 18.4587 16.9479 18.3658C16.855 18.2728 16.7812 18.1624 16.7309 18.041C16.6806 17.9195 16.6547 17.7893 16.6547 17.6578L16.6561 8.75883L7.05039 18.3645C6.86286 18.5521 6.60853 18.6574 6.34333 18.6574C6.07813 18.6574 5.8238 18.5521 5.63627 18.3645Z" fill="white"/>
</svg>
