<svg width="24" height="24" viewBox="0 0 24 24" fill="none" xmlns="http://www.w3.org/2000/svg">
<path fill-rule="evenodd" clip-rule="evenodd" d="M11.9996 3.00061C11.7344 3.00061 11.4801 3.10596 11.2926 3.29348C11.1051 3.481 10.9997 3.73534 10.9997 4.00054V17.5851L4.70816 11.2915C4.61519 11.1986 4.50482 11.1248 4.38335 11.0745C4.26188 11.0242 4.13169 10.9983 4.00021 10.9983C3.86874 10.9983 3.73855 11.0242 3.61708 11.0745C3.49561 11.1248 3.38523 11.1986 3.29227 11.2915C3.1993 11.3845 3.12555 11.4949 3.07523 11.6163C3.02492 11.7378 2.99902 11.868 2.99902 11.9995C2.99902 12.131 3.02492 12.2611 3.07523 12.3826C3.12555 12.5041 3.1993 12.6145 3.29227 12.7074L11.2917 20.7068C11.3846 20.8 11.4949 20.8738 11.6164 20.9243C11.7379 20.9747 11.8681 21.0006 11.9996 21.0006C12.1312 21.0006 12.2614 20.9747 12.3829 20.9243C12.5044 20.8738 12.6147 20.8 12.7076 20.7068L20.707 12.7074C20.8 12.6145 20.8737 12.5041 20.924 12.3826C20.9743 12.2611 21.0002 12.131 21.0002 11.9995C21.0002 11.868 20.9743 11.7378 20.924 11.6163C20.8737 11.4949 20.8 11.3845 20.707 11.2915C20.614 11.1986 20.5037 11.1248 20.3822 11.0745C20.2607 11.0242 20.1305 10.9983 19.9991 10.9983C19.8676 10.9983 19.7374 11.0242 19.6159 11.0745C19.4944 11.1248 19.3841 11.1986 19.2911 11.2915L12.9996 17.5851V4.00054C12.9996 3.73534 12.8942 3.481 12.7067 3.29348C12.5192 3.10596 12.2648 3.00061 11.9996 3.00061Z" fill="white"/>
</svg>
