<svg width="24" height="24" viewBox="0 0 24 24" fill="none" xmlns="http://www.w3.org/2000/svg">
<path d="M11.75 2C12.0783 2 12.3932 2.1317 12.6254 2.36612C12.8576 2.60054 12.988 2.91848 12.988 3.25V9.835L18.6359 6.5425C18.7767 6.45913 18.9325 6.40471 19.0943 6.38238C19.256 6.36004 19.4206 6.37024 19.5784 6.41238C19.7363 6.45451 19.8843 6.52776 20.014 6.62789C20.1437 6.72803 20.2525 6.85308 20.3341 6.99584C20.4158 7.1386 20.4686 7.29626 20.4897 7.45974C20.5107 7.62321 20.4995 7.78927 20.4568 7.94837C20.414 8.10746 20.3405 8.25643 20.2404 8.38672C20.1404 8.517 20.0158 8.62602 19.8739 8.7075L14.226 12L19.8739 15.2925C20.0158 15.374 20.1404 15.483 20.2404 15.6133C20.3405 15.7436 20.414 15.8925 20.4568 16.0516C20.4995 16.2107 20.5107 16.3768 20.4897 16.5403C20.4686 16.7037 20.4158 16.8614 20.3341 17.0042C20.2525 17.1469 20.1437 17.272 20.014 17.3721C19.8843 17.4722 19.7363 17.5455 19.5784 17.5876C19.4206 17.6298 19.256 17.64 19.0943 17.6176C18.9325 17.5953 18.7767 17.5409 18.6359 17.4575L12.988 14.165V20.75C12.988 21.0815 12.8576 21.3995 12.6254 21.6339C12.3932 21.8683 12.0783 22 11.75 22C11.4217 22 11.1068 21.8683 10.8746 21.6339C10.6424 21.3995 10.512 21.0815 10.512 20.75V14.165L4.86414 17.4575C4.72329 17.5409 4.5675 17.5953 4.40573 17.6176C4.24397 17.64 4.07943 17.6298 3.92158 17.5876C3.76373 17.5455 3.6157 17.4722 3.486 17.3721C3.35631 17.272 3.24751 17.1469 3.16587 17.0042C3.08423 16.8614 3.03137 16.7037 3.01033 16.5403C2.98928 16.3768 3.00047 16.2107 3.04325 16.0516C3.08603 15.8925 3.15955 15.7436 3.25958 15.6133C3.35962 15.483 3.48419 15.374 3.62612 15.2925L9.27396 12L3.62612 8.7075C3.34409 8.54056 3.13891 8.26777 3.05535 7.94865C2.97179 7.62953 3.01663 7.28999 3.18009 7.00413C3.34356 6.71827 3.61237 6.5093 3.92787 6.42281C4.24337 6.33633 4.57994 6.37935 4.86414 6.5425L10.512 9.835V3.25C10.512 2.91848 10.6424 2.60054 10.8746 2.36612C11.1068 2.1317 11.4217 2 11.75 2Z" fill="white"/>
</svg>
