<svg width="24" height="24" viewBox="0 0 24 24" fill="none" xmlns="http://www.w3.org/2000/svg">
<path d="M13.375 6.5C13.375 6.86467 13.2301 7.21441 12.9723 7.47227C12.7144 7.73013 12.3647 7.875 12 7.875C11.6353 7.875 11.2856 7.73013 11.0277 7.47227C10.7699 7.21441 10.625 6.86467 10.625 6.5C10.625 6.13533 10.7699 5.78559 11.0277 5.52773C11.2856 5.26987 11.6353 5.125 12 5.125C12.3647 5.125 12.7144 5.26987 12.9723 5.52773C13.2301 5.78559 13.375 6.13533 13.375 6.5ZM9.9375 15.4375C9.9375 14.8905 10.1548 14.3659 10.5416 13.9791C10.9284 13.5923 11.453 13.375 12 13.375C12.547 13.375 13.0716 13.5923 13.4584 13.9791C13.8452 14.3659 14.0625 14.8905 14.0625 15.4375C14.0625 15.9845 13.8452 16.5091 13.4584 16.8959C13.0716 17.2827 12.547 17.5 12 17.5C11.453 17.5 10.9284 17.2827 10.5416 16.8959C10.1548 16.5091 9.9375 15.9845 9.9375 15.4375Z" fill="white"/>
<path d="M6.5 1C5.77065 1 5.07118 1.28973 4.55546 1.80546C4.03973 2.32118 3.75 3.02065 3.75 3.75V20.25C3.75 20.9793 4.03973 21.6788 4.55546 22.1945C5.07118 22.7103 5.77065 23 6.5 23H17.5C18.2293 23 18.9288 22.7103 19.4445 22.1945C19.9603 21.6788 20.25 20.9793 20.25 20.25V3.75C20.25 3.02065 19.9603 2.32118 19.4445 1.80546C18.9288 1.28973 18.2293 1 17.5 1H6.5ZM14.75 6.5C14.75 7.22935 14.4603 7.92882 13.9445 8.44454C13.4288 8.96027 12.7293 9.25 12 9.25C11.2707 9.25 10.5712 8.96027 10.0555 8.44454C9.53973 7.92882 9.25 7.22935 9.25 6.5C9.25 5.77065 9.53973 5.07118 10.0555 4.55546C10.5712 4.03973 11.2707 3.75 12 3.75C12.7293 3.75 13.4288 4.03973 13.9445 4.55546C14.4603 5.07118 14.75 5.77065 14.75 6.5ZM12 10.625C13.2764 10.625 14.5004 11.132 15.403 12.0345C16.3055 12.9371 16.8125 14.1611 16.8125 15.4375C16.8125 16.7139 16.3055 17.9379 15.403 18.8405C14.5004 19.743 13.2764 20.25 12 20.25C10.7236 20.25 9.49957 19.743 8.59705 18.8405C7.69453 17.9379 7.1875 16.7139 7.1875 15.4375C7.1875 14.1611 7.69453 12.9371 8.59705 12.0345C9.49957 11.132 10.7236 10.625 12 10.625Z" fill="white"/>
</svg>
