<svg width="24" height="24" viewBox="0 0 24 24" fill="none" xmlns="http://www.w3.org/2000/svg">
<path d="M12 3.25C12 2.91848 12.1317 2.60054 12.3661 2.36612C12.6005 2.1317 12.9185 2 13.25 2H20.75C21.0815 2 21.3995 2.1317 21.6339 2.36612C21.8683 2.60054 22 2.91848 22 3.25V20.75C22 21.0815 21.8683 21.3995 21.6339 21.6339C21.3995 21.8683 21.0815 22 20.75 22H13.25C12.9185 22 12.6005 21.8683 12.3661 21.6339C12.1317 21.3995 12 21.0815 12 20.75V3.25ZM13.25 20.125C13.25 20.2908 13.3158 20.4497 13.4331 20.5669C13.5503 20.6842 13.7092 20.75 13.875 20.75C14.0408 20.75 14.1997 20.6842 14.3169 20.5669C14.4342 20.4497 14.5 20.2908 14.5 20.125C14.5 19.9592 14.4342 19.8003 14.3169 19.6831C14.1997 19.5658 14.0408 19.5 13.875 19.5C13.7092 19.5 13.5503 19.5658 13.4331 19.6831C13.3158 19.8003 13.25 19.9592 13.25 20.125ZM15.75 20.125C15.75 20.2908 15.8158 20.4497 15.9331 20.5669C16.0503 20.6842 16.2092 20.75 16.375 20.75C16.5408 20.75 16.6997 20.6842 16.8169 20.5669C16.9342 20.4497 17 20.2908 17 20.125C17 19.9592 16.9342 19.8003 16.8169 19.6831C16.6997 19.5658 16.5408 19.5 16.375 19.5C16.2092 19.5 16.0503 19.5658 15.9331 19.6831C15.8158 19.8003 15.75 19.9592 15.75 20.125ZM13.875 3.25C13.7092 3.25 13.5503 3.31585 13.4331 3.43306C13.3158 3.55027 13.25 3.70924 13.25 3.875C13.25 4.04076 13.3158 4.19973 13.4331 4.31694C13.5503 4.43415 13.7092 4.5 13.875 4.5H20.125C20.2908 4.5 20.4497 4.43415 20.5669 4.31694C20.6842 4.19973 20.75 4.04076 20.75 3.875C20.75 3.70924 20.6842 3.55027 20.5669 3.43306C20.4497 3.31585 20.2908 3.25 20.125 3.25H13.875ZM13.25 6.375C13.25 6.54076 13.3158 6.69973 13.4331 6.81694C13.5503 6.93415 13.7092 7 13.875 7H20.125C20.2908 7 20.4497 6.93415 20.5669 6.81694C20.6842 6.69973 20.75 6.54076 20.75 6.375C20.75 6.20924 20.6842 6.05027 20.5669 5.93306C20.4497 5.81585 20.2908 5.75 20.125 5.75H13.875C13.7092 5.75 13.5503 5.81585 13.4331 5.93306C13.3158 6.05027 13.25 6.20924 13.25 6.375ZM3.875 4.5C3.37772 4.5 2.90081 4.69754 2.54917 5.04918C2.19754 5.40081 2 5.87772 2 6.375L2 15.125C2 15.6223 2.19754 16.0992 2.54917 16.4508C2.90081 16.8025 3.37772 17 3.875 17H9.5V19.5H8.875C8.70924 19.5 8.55027 19.5658 8.43306 19.6831C8.31585 19.8003 8.25 19.9592 8.25 20.125C8.25 20.2908 8.31585 20.4497 8.43306 20.5669C8.55027 20.6842 8.70924 20.75 8.875 20.75H10.75V15.75H3.875C3.70924 15.75 3.55027 15.6842 3.43306 15.5669C3.31585 15.4497 3.25 15.2908 3.25 15.125V6.375C3.25 6.20924 3.31585 6.05027 3.43306 5.93306C3.55027 5.81585 3.70924 5.75 3.875 5.75H10.75V4.5H3.875Z" fill="white"/>
</svg>
