<svg width="24" height="24" viewBox="0 0 24 24" fill="none" xmlns="http://www.w3.org/2000/svg">
<path d="M12 3.25C12.8288 3.25 13.6237 3.57924 14.2097 4.16529C14.7958 4.75134 15.125 5.5462 15.125 6.375V7H8.875V6.375C8.875 5.5462 9.20424 4.75134 9.79029 4.16529C10.3763 3.57924 11.1712 3.25 12 3.25ZM16.375 7V6.375C16.375 5.21468 15.9141 4.10188 15.0936 3.28141C14.2731 2.46094 13.1603 2 12 2C10.8397 2 9.72688 2.46094 8.90641 3.28141C8.08594 4.10188 7.625 5.21468 7.625 6.375V7H3.25V19.5C3.25 20.163 3.51339 20.7989 3.98223 21.2678C4.45107 21.7366 5.08696 22 5.75 22H18.25C18.913 22 19.5489 21.7366 20.0178 21.2678C20.4866 20.7989 20.75 20.163 20.75 19.5V7H16.375Z" fill="white"/>
</svg>
