<svg width="24" height="24" viewBox="0 0 24 24" fill="none" xmlns="http://www.w3.org/2000/svg">
<path fill-rule="evenodd" clip-rule="evenodd" d="M15.125 6.375C15.125 5.5462 14.7958 4.75134 14.2097 4.16529C13.6237 3.57924 12.8288 3.25 12 3.25C11.1712 3.25 10.3763 3.57924 9.79029 4.16529C9.20424 4.75134 8.875 5.5462 8.875 6.375V7H15.125V6.375ZM16.375 6.375V7H20.75V19.5C20.75 20.163 20.4866 20.7989 20.0178 21.2678C19.5489 21.7366 18.913 22 18.25 22H5.75C5.08696 22 4.45107 21.7366 3.98223 21.2678C3.51339 20.7989 3.25 20.163 3.25 19.5V7H7.625V6.375C7.625 5.21468 8.08594 4.10188 8.90641 3.28141C9.72688 2.46094 10.8397 2 12 2C13.1603 2 14.2731 2.46094 15.0936 3.28141C15.9141 4.10188 16.375 5.21468 16.375 6.375ZM15.5675 13.0675C15.6849 12.9501 15.7508 12.791 15.7508 12.625C15.7508 12.459 15.6849 12.2999 15.5675 12.1825C15.4501 12.0651 15.291 11.9992 15.125 11.9992C14.959 11.9992 14.7999 12.0651 14.6825 12.1825L11.375 15.4913L9.9425 14.0575C9.88439 13.9994 9.8154 13.9533 9.73948 13.9218C9.66356 13.8904 9.58218 13.8742 9.5 13.8742C9.41782 13.8742 9.33644 13.8904 9.26052 13.9218C9.1846 13.9533 9.11561 13.9994 9.0575 14.0575C8.99939 14.1156 8.95329 14.1846 8.92185 14.2605C8.8904 14.3364 8.87421 14.4178 8.87421 14.5C8.87421 14.5822 8.8904 14.6636 8.92185 14.7395C8.95329 14.8154 8.99939 14.8844 9.0575 14.9425L10.9325 16.8175C10.9906 16.8757 11.0595 16.9219 11.1355 16.9534C11.2114 16.9849 11.2928 17.0011 11.375 17.0011C11.4572 17.0011 11.5386 16.9849 11.6145 16.9534C11.6905 16.9219 11.7594 16.8757 11.8175 16.8175L15.5675 13.0675Z" fill="white"/>
</svg>
