<svg width="24" height="24" viewBox="0 0 24 24" fill="none" xmlns="http://www.w3.org/2000/svg">
<path d="M5.125 7C4.95924 7 4.80027 6.93415 4.68306 6.81694C4.56585 6.69973 4.5 6.54076 4.5 6.375C4.5 6.20924 4.56585 6.05027 4.68306 5.93306C4.80027 5.81585 4.95924 5.75 5.125 5.75H18.875C19.0408 5.75 19.1997 5.81585 19.3169 5.93306C19.4342 6.05027 19.5 6.20924 19.5 6.375C19.5 6.54076 19.4342 6.69973 19.3169 6.81694C19.1997 6.93415 19.0408 7 18.875 7H5.125ZM7.625 4.5C7.45924 4.5 7.30027 4.43415 7.18306 4.31694C7.06585 4.19973 7 4.04076 7 3.875C7 3.70924 7.06585 3.55027 7.18306 3.43306C7.30027 3.31585 7.45924 3.25 7.625 3.25H16.375C16.5408 3.25 16.6997 3.31585 16.8169 3.43306C16.9342 3.55027 17 3.70924 17 3.875C17 4.04076 16.9342 4.19973 16.8169 4.31694C16.6997 4.43415 16.5408 4.5 16.375 4.5H7.625ZM2 18.875C2 19.3723 2.19754 19.8492 2.54917 20.2008C2.90081 20.5525 3.37772 20.75 3.875 20.75H20.125C20.6223 20.75 21.0992 20.5525 21.4508 20.2008C21.8025 19.8492 22 19.3723 22 18.875V10.125C22 9.62772 21.8025 9.1508 21.4508 8.79917C21.0992 8.44754 20.6223 8.25 20.125 8.25H3.875C3.37772 8.25 2.90081 8.44754 2.54917 8.79917C2.19754 9.1508 2 9.62772 2 10.125L2 18.875Z" fill="white"/>
</svg>
