<svg width="24" height="24" viewBox="0 0 24 24" fill="none" xmlns="http://www.w3.org/2000/svg">
<path d="M18.161 6.32346C18.2603 6.22105 18.3788 6.13969 18.5095 6.08415C18.6403 6.02861 18.7807 6 18.9225 6C19.0643 6 19.2047 6.02861 19.3354 6.08415C19.4662 6.13969 19.5847 6.22105 19.6839 6.32346C20.1 6.74848 20.1058 7.4353 19.6985 7.86768L11.0976 18.1478C10.9999 18.2562 10.8814 18.3434 10.7493 18.4039C10.6172 18.4644 10.4743 18.4971 10.3293 18.4998C10.1843 18.5026 10.0402 18.4754 9.90599 18.4199C9.77173 18.3644 9.65007 18.2819 9.54847 18.1772L4.3149 12.8151C4.11306 12.607 4 12.3271 4 12.0356C4 11.7441 4.11306 11.4643 4.3149 11.2562C4.41417 11.1537 4.53265 11.0724 4.6634 11.0168C4.79416 10.9613 4.93455 10.9327 5.07637 10.9327C5.2182 10.9327 5.35859 10.9613 5.48934 11.0168C5.6201 11.0724 5.73857 11.1537 5.83784 11.2562L10.2772 15.805L18.1319 6.35581L18.161 6.32346Z" fill="white"/>
</svg>
