<svg width="24" height="24" viewBox="0 0 24 24" fill="none" xmlns="http://www.w3.org/2000/svg">
<path fill-rule="evenodd" clip-rule="evenodd" d="M15.3007 3.20337C15.2377 3.1389 15.1628 3.08776 15.0804 3.05286C14.998 3.01796 14.9096 3 14.8204 3C14.7312 3 14.6428 3.01796 14.5604 3.05286C14.478 3.08776 14.4031 3.1389 14.3401 3.20337L6.1993 11.5101C6.13613 11.5744 6.086 11.6508 6.0518 11.7349C6.0176 11.819 6 11.9091 6 12.0002C6 12.0912 6.0176 12.1814 6.0518 12.2655C6.086 12.3496 6.13613 12.426 6.1993 12.4903L14.3401 20.797C14.4675 20.927 14.6402 21 14.8204 21C15.0005 21 15.1733 20.927 15.3007 20.797C15.4281 20.667 15.4996 20.4907 15.4996 20.3069C15.4996 20.1231 15.4281 19.9468 15.3007 19.8168L7.63887 12.0002L15.3007 4.18356C15.3639 4.11926 15.414 4.04287 15.4482 3.95877C15.4824 3.87467 15.5 3.78452 15.5 3.69346C15.5 3.60241 15.4824 3.51226 15.4482 3.42816C15.414 3.34406 15.3639 3.26767 15.3007 3.20337Z" fill="white"/>
</svg>
