<svg width="24" height="24" viewBox="0 0 24 24" fill="none" xmlns="http://www.w3.org/2000/svg">
<path fill-rule="evenodd" clip-rule="evenodd" d="M3.20337 15.3007C3.1389 15.2377 3.08776 15.1628 3.05286 15.0804C3.01796 14.998 3 14.9096 3 14.8204C3 14.7312 3.01796 14.6428 3.05286 14.5604C3.08776 14.478 3.1389 14.4031 3.20337 14.3401L11.5101 6.1993C11.5744 6.13613 11.6508 6.086 11.7349 6.0518C11.819 6.0176 11.9091 6 12.0002 6C12.0912 6 12.1814 6.0176 12.2655 6.0518C12.3496 6.086 12.426 6.13613 12.4903 6.1993L20.797 14.3401C20.927 14.4675 21 14.6402 21 14.8204C21 15.0005 20.927 15.1733 20.797 15.3007C20.667 15.4281 20.4907 15.4996 20.3069 15.4996C20.1231 15.4996 19.9468 15.4281 19.8168 15.3007L12.0002 7.63887L4.18356 15.3007C4.11926 15.3639 4.04287 15.414 3.95877 15.4482C3.87467 15.4824 3.78452 15.5 3.69346 15.5C3.60241 15.5 3.51226 15.4824 3.42816 15.4482C3.34406 15.414 3.26767 15.3639 3.20337 15.3007Z" fill="white"/>
</svg>
