<svg width="24" height="24" viewBox="0 0 24 24" fill="none" xmlns="http://www.w3.org/2000/svg">
<path fill-rule="evenodd" clip-rule="evenodd" d="M10.3831 3.07279C10.2205 3.15503 10.097 3.29885 10.0395 3.47272C9.98205 3.64658 9.99539 3.83629 10.0766 4.00026L14.0445 11.9973L10.0752 19.993C10.034 20.0743 10.0091 20.1631 10.0021 20.2542C9.99504 20.3452 10.006 20.4368 10.0342 20.5236C10.0625 20.6104 10.1076 20.6907 10.1668 20.7599C10.226 20.829 10.2982 20.8857 10.3793 20.9266C10.4604 20.9676 10.5487 20.9919 10.6392 20.9983C10.7297 21.0047 10.8205 20.993 10.9065 20.9638C10.9924 20.9347 11.0718 20.8887 11.14 20.8285C11.2082 20.7683 11.2639 20.6951 11.304 20.6131L15.4272 12.3074C15.4751 12.2111 15.5 12.105 15.5 11.9973C15.5 11.8897 15.4751 11.7835 15.4272 11.6872L11.304 3.38148C11.2223 3.21774 11.0795 3.09329 10.9069 3.03542C10.7343 2.97755 10.5459 2.99099 10.3831 3.07279Z" fill="white"/>
</svg>
