<svg width="24" height="24" viewBox="0 0 24 24" fill="none" xmlns="http://www.w3.org/2000/svg">
<path fill-rule="evenodd" clip-rule="evenodd" d="M13.6169 3.07279C13.7795 3.15503 13.903 3.29885 13.9605 3.47272C14.018 3.64658 14.0046 3.83629 13.9234 4.00026L9.95548 11.9973L13.9248 19.993C13.966 20.0743 13.9909 20.1631 13.9979 20.2542C14.005 20.3452 13.994 20.4368 13.9658 20.5236C13.9375 20.6104 13.8924 20.6907 13.8332 20.7599C13.774 20.829 13.7018 20.8857 13.6207 20.9266C13.5396 20.9676 13.4513 20.9919 13.3608 20.9983C13.2703 21.0047 13.1795 20.993 13.0935 20.9638C13.0076 20.9347 12.9282 20.8887 12.86 20.8285C12.7918 20.7683 12.7361 20.6951 12.696 20.6131L8.57282 12.3074C8.52493 12.2111 8.5 12.105 8.5 11.9973C8.5 11.8897 8.52493 11.7835 8.57282 11.6872L12.696 3.38148C12.7777 3.21774 12.9205 3.09329 13.0931 3.03542C13.2657 2.97755 13.4541 2.99099 13.6169 3.07279Z" fill="white"/>
</svg>
