<svg width="24" height="24" viewBox="0 0 24 24" fill="none" xmlns="http://www.w3.org/2000/svg">
<path fill-rule="evenodd" clip-rule="evenodd" d="M8.1993 3.20337C8.26232 3.1389 8.33718 3.08776 8.4196 3.05286C8.50202 3.01796 8.59038 3 8.67961 3C8.76884 3 8.8572 3.01796 8.93962 3.05286C9.02204 3.08776 9.0969 3.1389 9.15992 3.20337L17.3007 11.5101C17.3639 11.5744 17.414 11.6508 17.4482 11.7349C17.4824 11.819 17.5 11.9091 17.5 12.0002C17.5 12.0912 17.4824 12.1814 17.4482 12.2655C17.414 12.3496 17.3639 12.426 17.3007 12.4903L9.15992 20.797C9.03253 20.927 8.85976 21 8.67961 21C8.49946 21 8.32669 20.927 8.1993 20.797C8.07192 20.667 8.00036 20.4907 8.00036 20.3069C8.00036 20.1231 8.07192 19.9468 8.1993 19.8168L15.8611 12.0002L8.1993 4.18356C8.13613 4.11926 8.086 4.04287 8.0518 3.95877C8.0176 3.87467 8 3.78452 8 3.69346C8 3.60241 8.0176 3.51226 8.0518 3.42816C8.086 3.34406 8.13613 3.26767 8.1993 3.20337Z" fill="white"/>
</svg>
