<svg width="24" height="24" viewBox="0 0 24 24" fill="none" xmlns="http://www.w3.org/2000/svg">
<path fill-rule="evenodd" clip-rule="evenodd" d="M3.20337 8.6993C3.1389 8.76232 3.08776 8.83718 3.05286 8.9196C3.01796 9.00202 3 9.09038 3 9.17961C3 9.26884 3.01796 9.3572 3.05286 9.43962C3.08776 9.52204 3.1389 9.5969 3.20337 9.65992L11.5101 17.8007C11.5744 17.8639 11.6508 17.914 11.7349 17.9482C11.819 17.9824 11.9091 18 12.0002 18C12.0912 18 12.1814 17.9824 12.2655 17.9482C12.3496 17.914 12.426 17.8639 12.4903 17.8007L20.797 9.65992C20.927 9.53253 21 9.35976 21 9.17961C21 8.99946 20.927 8.82669 20.797 8.6993C20.667 8.57192 20.4907 8.50035 20.3069 8.50035C20.1231 8.50036 19.9468 8.57192 19.8168 8.6993L12.0002 16.3611L4.18356 8.6993C4.11926 8.63613 4.04287 8.586 3.95877 8.5518C3.87467 8.5176 3.78452 8.5 3.69346 8.5C3.60241 8.5 3.51226 8.5176 3.42816 8.5518C3.34406 8.586 3.26767 8.63613 3.20337 8.6993Z" fill="white"/>
</svg>
