<svg width="24" height="24" viewBox="0 0 24 24" fill="none" xmlns="http://www.w3.org/2000/svg">
<path d="M22 11.4231C22 16.2131 17.5225 20.0961 12 20.0961C11.0095 20.0983 10.0231 19.9708 9.06625 19.717C8.33625 20.0837 6.66 20.7875 3.84 21.2459C3.59 21.2856 3.4 21.0279 3.49875 20.7974C3.94125 19.7616 4.34125 18.3813 4.46125 17.1225C2.93 15.5985 2 13.6037 2 11.4231C2 6.63306 6.4775 2.75 12 2.75C17.5225 2.75 22 6.63306 22 11.4231ZM8.25 11.4231C8.25 11.0945 8.1183 10.7793 7.88388 10.547C7.64946 10.3146 7.33152 10.1841 7 10.1841C6.66848 10.1841 6.35054 10.3146 6.11612 10.547C5.8817 10.7793 5.75 11.0945 5.75 11.4231C5.75 11.7517 5.8817 12.0668 6.11612 12.2992C6.35054 12.5315 6.66848 12.6621 7 12.6621C7.33152 12.6621 7.64946 12.5315 7.88388 12.2992C8.1183 12.0668 8.25 11.7517 8.25 11.4231ZM13.25 11.4231C13.25 11.0945 13.1183 10.7793 12.8839 10.547C12.6495 10.3146 12.3315 10.1841 12 10.1841C11.6685 10.1841 11.3505 10.3146 11.1161 10.547C10.8817 10.7793 10.75 11.0945 10.75 11.4231C10.75 11.7517 10.8817 12.0668 11.1161 12.2992C11.3505 12.5315 11.6685 12.6621 12 12.6621C12.3315 12.6621 12.6495 12.5315 12.8839 12.2992C13.1183 12.0668 13.25 11.7517 13.25 11.4231ZM17 12.6621C17.3315 12.6621 17.6495 12.5315 17.8839 12.2992C18.1183 12.0668 18.25 11.7517 18.25 11.4231C18.25 11.0945 18.1183 10.7793 17.8839 10.547C17.6495 10.3146 17.3315 10.1841 17 10.1841C16.6685 10.1841 16.3505 10.3146 16.1161 10.547C15.8817 10.7793 15.75 11.0945 15.75 11.4231C15.75 11.7517 15.8817 12.0668 16.1161 12.2992C16.3505 12.5315 16.6685 12.6621 17 12.6621Z" fill="white"/>
</svg>
