<svg width="24" height="24" viewBox="0 0 24 24" fill="none" xmlns="http://www.w3.org/2000/svg">
<path d="M23.7604 8.24937C23.9138 8.09733 24 7.89112 24 7.6761C24 7.46108 23.9138 7.25487 23.7604 7.10283C23.6069 6.95079 23.3988 6.86538 23.1818 6.86538H13.7024L17.2156 3.38574C17.2917 3.31037 17.3521 3.22088 17.3932 3.12239C17.4344 3.02391 17.4556 2.91835 17.4556 2.81175C17.4556 2.59646 17.3693 2.38999 17.2156 2.23776C17.1396 2.16238 17.0493 2.10258 16.9499 2.06179C16.8505 2.021 16.7439 2 16.6364 2C16.5288 2 16.4223 2.021 16.3229 2.06179C16.2235 2.10258 16.1332 2.16238 16.0571 2.23776L11.148 7.10211C11.0718 7.17742 11.0114 7.26688 10.9701 7.36538C10.9289 7.46387 10.9076 7.56946 10.9076 7.6761C10.9076 7.78274 10.9289 7.88833 10.9701 7.98682C11.0114 8.08532 11.0718 8.17479 11.148 8.25009L16.0571 13.1144C16.1332 13.1898 16.2235 13.2496 16.3229 13.2904C16.4223 13.3312 16.5288 13.3522 16.6364 13.3522C16.7439 13.3522 16.8505 13.3312 16.9499 13.2904C17.0493 13.2496 17.1396 13.1898 17.2156 13.1144C17.2917 13.0391 17.3521 12.9496 17.3932 12.8511C17.4344 12.7526 17.4556 12.6471 17.4556 12.5405C17.4556 12.4339 17.4344 12.3283 17.3932 12.2298C17.3521 12.1313 17.2917 12.0418 17.2156 11.9665L13.7024 8.48683H23.1818C23.3988 8.48683 23.6069 8.40141 23.7604 8.24937Z" fill="white"/>
<path d="M0.23964 15.7506C0.0862015 15.9027 0 16.1089 0 16.3239C0 16.5389 0.0862015 16.7451 0.23964 16.8972C0.393079 17.0492 0.601187 17.1346 0.818182 17.1346H10.2976L6.78436 20.6143C6.70829 20.6896 6.64795 20.7791 6.60678 20.8776C6.56561 20.9761 6.54442 21.0816 6.54442 21.1882C6.54442 21.4035 6.63073 21.61 6.78436 21.7622C6.86043 21.8376 6.95074 21.8974 7.05014 21.9382C7.14953 21.979 7.25606 22 7.36364 22C7.47122 22 7.57774 21.979 7.67714 21.9382C7.77653 21.8974 7.86684 21.8376 7.94291 21.7622L12.852 16.8979C12.9282 16.8226 12.9886 16.7331 13.0299 16.6346C13.0711 16.5361 13.0924 16.4305 13.0924 16.3239C13.0924 16.2173 13.0711 16.1117 13.0299 16.0132C12.9886 15.9147 12.9282 15.8252 12.852 15.7499L7.94291 10.8856C7.86684 10.8102 7.77653 10.7504 7.67714 10.7096C7.57774 10.6688 7.47122 10.6478 7.36364 10.6478C7.25606 10.6478 7.14953 10.6688 7.05014 10.7096C6.95074 10.7504 6.86043 10.8102 6.78436 10.8856C6.70829 10.9609 6.64795 11.0504 6.60678 11.1489C6.56561 11.2474 6.54442 11.3529 6.54442 11.4595C6.54442 11.5661 6.56561 11.6717 6.60678 11.7702C6.64795 11.8687 6.70829 11.9582 6.78436 12.0335L10.2976 15.5132H0.818182C0.601187 15.5132 0.393079 15.5986 0.23964 15.7506Z" fill="white"/>
</svg>
