<svg width="24" height="24" viewBox="0 0 24 24" fill="none" xmlns="http://www.w3.org/2000/svg">
<path d="M8.44169 13.1943C8.25762 12.6378 8.20474 12.0458 8.28725 11.4652L12.5308 15.7394C11.9543 15.8225 11.3665 15.7692 10.814 15.5838C10.2616 15.3984 9.75954 15.086 9.34777 14.6712C8.93599 14.2564 8.62577 13.7508 8.44169 13.1943Z" fill="white"/>
<path d="M11.4688 8.25914L15.7123 12.5349V12.5334C15.7948 11.9527 15.7419 11.3607 15.5578 10.8042C15.3737 10.2477 15.0635 9.74209 14.6517 9.32733C14.24 8.91257 13.7379 8.60011 13.1855 8.4147C12.633 8.22929 12.0452 8.17603 11.4688 8.25914Z" fill="white"/>
<path d="M2.46875 3.46971L20.4688 21.6L21.5308 20.5303L3.53075 2.40002L2.46875 3.46971Z" fill="white"/>
<path d="M13.764 16.9813L16.185 19.4214C14.8653 20.0036 13.4407 20.306 12 20.3098C4.5 20.3098 0 12 0 12C0 12 1.407 9.39833 3.963 7.10938L7.053 10.2217C6.71827 11.1648 6.65628 12.1841 6.87424 13.1612C7.09221 14.1384 7.58117 15.033 8.28423 15.7412C8.98729 16.4493 9.87554 16.9418 10.8456 17.1614C11.8157 17.3809 12.8278 17.3185 13.764 16.9813Z" fill="white"/>
<path d="M12 3.6903C10.5593 3.6941 9.13472 3.9965 7.815 4.57869L10.2345 7.01722C11.1707 6.68006 12.1828 6.61762 13.1529 6.83717C14.123 7.05671 15.0112 7.54921 15.7143 8.25736C16.4173 8.96551 16.9063 9.86019 17.1243 10.8373C17.3422 11.8144 17.2802 12.8338 16.9455 13.7768L20.0385 16.8922C22.5915 14.6002 24 12 24 12C24 12 19.5 3.6903 12 3.6903Z" fill="white"/>
</svg>
