<svg width="24" height="24" viewBox="0 0 24 24" fill="none" xmlns="http://www.w3.org/2000/svg">
<path d="M15.75 12C15.75 13.0126 15.3549 13.9838 14.6517 14.6998C13.9484 15.4159 12.9946 15.8182 12 15.8182C11.0054 15.8182 10.0516 15.4159 9.34835 14.6998C8.64509 13.9838 8.25 13.0126 8.25 12C8.25 10.9873 8.64509 10.0162 9.34835 9.30011C10.0516 8.58407 11.0054 8.18179 12 8.18179C12.9946 8.18179 13.9484 8.58407 14.6517 9.30011C15.3549 10.0162 15.75 10.9873 15.75 12Z" fill="white"/>
<path d="M0 12C0 12 4.5 3.59998 12 3.59998C19.5 3.59998 24 12 24 12C24 12 19.5 20.4 12 20.4C4.5 20.4 0 12 0 12ZM12 17.3454C13.3924 17.3454 14.7277 16.7822 15.7123 15.7798C16.6969 14.7773 17.25 13.4177 17.25 12C17.25 10.5823 16.6969 9.22264 15.7123 8.22017C14.7277 7.2177 13.3924 6.65452 12 6.65452C10.6076 6.65452 9.27226 7.2177 8.28769 8.22017C7.30312 9.22264 6.75 10.5823 6.75 12C6.75 13.4177 7.30312 14.7773 8.28769 15.7798C9.27226 16.7822 10.6076 17.3454 12 17.3454Z" fill="white"/>
</svg>
