<svg width="24" height="24" viewBox="0 0 24 24" fill="none" xmlns="http://www.w3.org/2000/svg">
<path d="M21.5772 10.1979C21.6933 10.869 21.7511 11.5491 21.75 12.2303C21.75 15.2727 20.6683 17.8451 18.7859 19.5863H18.7884C17.1423 21.115 14.8795 22 12.1964 22C9.55848 22 7.02856 20.9465 5.16324 19.0712C3.29792 17.1958 2.25 14.6524 2.25 12.0003C2.25 9.34821 3.29792 6.80475 5.16324 4.92944C7.02856 3.05413 9.55848 2.0006 12.1964 2.0006C14.6653 1.97296 17.0493 2.90534 18.8506 4.60302L16.0109 7.45793C14.9842 6.47453 13.6143 5.93587 12.1964 5.95798C9.60166 5.95798 7.39728 7.71793 6.61151 10.0879C6.19562 11.3298 6.19562 12.6745 6.61151 13.9165H6.61524C7.40474 16.2827 9.60539 18.0426 12.2002 18.0426C13.5404 18.0426 14.6917 17.6976 15.5844 17.0876H15.5807C16.0991 16.7425 16.5426 16.2953 16.8843 15.773C17.226 15.2508 17.4588 14.6643 17.5688 14.049H12.1964V10.1991L21.5772 10.1979Z" fill="white"/>
</svg>
