<svg width="24" height="24" viewBox="0 0 24 24" fill="none" xmlns="http://www.w3.org/2000/svg">
<path d="M8.25 11.375H12V7.625H8.25V11.375Z" fill="white"/>
<path d="M3.25 5.125C3.25 4.46196 3.51339 3.82607 3.98223 3.35723C4.45107 2.88839 5.08696 2.625 5.75 2.625H19.5C20.163 2.625 20.7989 2.88839 21.2678 3.35723C21.7366 3.82607 22 4.46196 22 5.125V18.875C22 19.538 21.7366 20.1739 21.2678 20.6428C20.7989 21.1116 20.163 21.375 19.5 21.375H5.75C5.08696 21.375 4.45107 21.1116 3.98223 20.6428C3.51339 20.1739 3.25 19.538 3.25 18.875V16.375H2.625C2.45924 16.375 2.30027 16.3092 2.18306 16.1919C2.06585 16.0747 2 15.9158 2 15.75V14.5C2 14.3342 2.06585 14.1753 2.18306 14.0581C2.30027 13.9408 2.45924 13.875 2.625 13.875H3.25V12.625H2.625C2.45924 12.625 2.30027 12.5592 2.18306 12.4419C2.06585 12.3247 2 12.1658 2 12V10.75C2 10.5842 2.06585 10.4253 2.18306 10.3081C2.30027 10.1908 2.45924 10.125 2.625 10.125H3.25V8.875H2.625C2.45924 8.875 2.30027 8.80915 2.18306 8.69194C2.06585 8.57473 2 8.41576 2 8.25V5.75C2 5.58424 2.06585 5.42527 2.18306 5.30806C2.30027 5.19085 2.45924 5.125 2.625 5.125H3.25ZM17 5.75C17 5.58424 16.9342 5.42527 16.8169 5.30806C16.6997 5.19085 16.5408 5.125 16.375 5.125C16.2092 5.125 16.0503 5.19085 15.9331 5.30806C15.8158 5.42527 15.75 5.58424 15.75 5.75V14.5C15.75 14.6658 15.8158 14.8247 15.9331 14.9419C16.0503 15.0592 16.2092 15.125 16.375 15.125C16.5408 15.125 16.6997 15.0592 16.8169 14.9419C16.9342 14.8247 17 14.6658 17 14.5V5.75ZM19.5 5.75C19.5 5.58424 19.4342 5.42527 19.3169 5.30806C19.1997 5.19085 19.0408 5.125 18.875 5.125C18.7092 5.125 18.5503 5.19085 18.4331 5.30806C18.3158 5.42527 18.25 5.58424 18.25 5.75V14.5C18.25 14.6658 18.3158 14.8247 18.4331 14.9419C18.5503 15.0592 18.7092 15.125 18.875 15.125C19.0408 15.125 19.1997 15.0592 19.3169 14.9419C19.4342 14.8247 19.5 14.6658 19.5 14.5V5.75ZM6.375 15.125C6.20924 15.125 6.05027 15.1908 5.93306 15.3081C5.81585 15.4253 5.75 15.5842 5.75 15.75C5.75 15.9158 5.81585 16.0747 5.93306 16.1919C6.05027 16.3092 6.20924 16.375 6.375 16.375H13.875C14.0408 16.375 14.1997 16.3092 14.3169 16.1919C14.4342 16.0747 14.5 15.9158 14.5 15.75C14.5 15.5842 14.4342 15.4253 14.3169 15.3081C14.1997 15.1908 14.0408 15.125 13.875 15.125H6.375ZM6.375 17.625C6.20924 17.625 6.05027 17.6908 5.93306 17.8081C5.81585 17.9253 5.75 18.0842 5.75 18.25C5.75 18.4158 5.81585 18.5747 5.93306 18.6919C6.05027 18.8092 6.20924 18.875 6.375 18.875H13.875C14.0408 18.875 14.1997 18.8092 14.3169 18.6919C14.4342 18.5747 14.5 18.4158 14.5 18.25C14.5 18.0842 14.4342 17.9253 14.3169 17.8081C14.1997 17.6908 14.0408 17.625 13.875 17.625H6.375ZM7 7.625H6.375C6.20924 7.625 6.05027 7.69085 5.93306 7.80806C5.81585 7.92527 5.75 8.08424 5.75 8.25C5.75 8.41576 5.81585 8.57473 5.93306 8.69194C6.05027 8.80915 6.20924 8.875 6.375 8.875H7V10.125H6.375C6.20924 10.125 6.05027 10.1908 5.93306 10.3081C5.81585 10.4253 5.75 10.5842 5.75 10.75C5.75 10.9158 5.81585 11.0747 5.93306 11.1919C6.05027 11.3092 6.20924 11.375 6.375 11.375H7C7 11.7065 7.1317 12.0245 7.36612 12.2589C7.60054 12.4933 7.91848 12.625 8.25 12.625V13.25C8.25 13.4158 8.31585 13.5747 8.43306 13.6919C8.55027 13.8092 8.70924 13.875 8.875 13.875C9.04076 13.875 9.19973 13.8092 9.31694 13.6919C9.43415 13.5747 9.5 13.4158 9.5 13.25V12.625H10.75V13.25C10.75 13.4158 10.8158 13.5747 10.9331 13.6919C11.0503 13.8092 11.2092 13.875 11.375 13.875C11.5408 13.875 11.6997 13.8092 11.8169 13.6919C11.9342 13.5747 12 13.4158 12 13.25V12.625C12.3315 12.625 12.6495 12.4933 12.8839 12.2589C13.1183 12.0245 13.25 11.7065 13.25 11.375H13.875C14.0408 11.375 14.1997 11.3092 14.3169 11.1919C14.4342 11.0747 14.5 10.9158 14.5 10.75C14.5 10.5842 14.4342 10.4253 14.3169 10.3081C14.1997 10.1908 14.0408 10.125 13.875 10.125H13.25V8.875H13.875C14.0408 8.875 14.1997 8.80915 14.3169 8.69194C14.4342 8.57473 14.5 8.41576 14.5 8.25C14.5 8.08424 14.4342 7.92527 14.3169 7.80806C14.1997 7.69085 14.0408 7.625 13.875 7.625H13.25C13.25 7.29348 13.1183 6.97554 12.8839 6.74112C12.6495 6.5067 12.3315 6.375 12 6.375V5.75C12 5.58424 11.9342 5.42527 11.8169 5.30806C11.6997 5.19085 11.5408 5.125 11.375 5.125C11.2092 5.125 11.0503 5.19085 10.9331 5.30806C10.8158 5.42527 10.75 5.58424 10.75 5.75V6.375H9.5V5.75C9.5 5.58424 9.43415 5.42527 9.31694 5.30806C9.19973 5.19085 9.04076 5.125 8.875 5.125C8.70924 5.125 8.55027 5.19085 8.43306 5.30806C8.31585 5.42527 8.25 5.58424 8.25 5.75V6.375C7.91848 6.375 7.60054 6.5067 7.36612 6.74112C7.1317 6.97554 7 7.29348 7 7.625ZM15.75 17V18.25C15.75 18.4158 15.8158 18.5747 15.9331 18.6919C16.0503 18.8092 16.2092 18.875 16.375 18.875H18.875C19.0408 18.875 19.1997 18.8092 19.3169 18.6919C19.4342 18.5747 19.5 18.4158 19.5 18.25V17C19.5 16.8342 19.4342 16.6753 19.3169 16.5581C19.1997 16.4408 19.0408 16.375 18.875 16.375H16.375C16.2092 16.375 16.0503 16.4408 15.9331 16.5581C15.8158 16.6753 15.75 16.8342 15.75 17Z" fill="white"/>
</svg>
