<svg width="24" height="24" viewBox="0 0 24 24" fill="none" xmlns="http://www.w3.org/2000/svg">
<path fill-rule="evenodd" clip-rule="evenodd" d="M3 4.25C2.20435 4.25 1.44129 4.56607 0.87868 5.12868C0.316071 5.69129 0 6.45435 0 7.25V16.75C0 17.5457 0.316071 18.3087 0.87868 18.8713C1.44129 19.4339 2.20435 19.75 3 19.75H21C21.7957 19.75 22.5587 19.4339 23.1213 18.8713C23.6839 18.3087 24 17.5457 24 16.75V7.25C24 6.45435 23.6839 5.69129 23.1213 5.12868C22.5587 4.56607 21.7957 4.25 21 4.25H3ZM20.3333 14.9167C20.3333 14.8062 20.3772 14.7002 20.4554 14.6221C20.5335 14.5439 20.6395 14.5 20.75 14.5H21.5833C21.6938 14.5 21.7998 14.5439 21.878 14.6221C21.9561 14.7002 22 14.8062 22 14.9167V15.75C22 15.8605 21.9561 15.9665 21.878 16.0447C21.7998 16.1228 21.6938 16.1667 21.5833 16.1667H20.75C20.6395 16.1667 20.5335 16.1228 20.4554 16.0447C20.3772 15.9665 20.3333 15.8605 20.3333 15.75V14.9167ZM20.3333 11.5834C20.3333 11.4729 20.3772 11.3669 20.4554 11.2887C20.5335 11.2106 20.6395 11.1667 20.75 11.1667H21.5833C21.6938 11.1667 21.7998 11.2106 21.878 11.2887C21.9561 11.3669 22 11.4729 22 11.5834V12.4167C22 12.5272 21.9561 12.6332 21.878 12.7113C21.7998 12.7895 21.6938 12.8334 21.5833 12.8334H20.75C20.6395 12.8334 20.5335 12.7895 20.4554 12.7113C20.3772 12.6332 20.3333 12.5272 20.3333 12.4167V11.5834ZM12 11.5834C12 11.4729 12.0439 11.3669 12.122 11.2887C12.2002 11.2106 12.3062 11.1667 12.4167 11.1667H13.25C13.3605 11.1667 13.4665 11.2106 13.5446 11.2887C13.6228 11.3669 13.6667 11.4729 13.6667 11.5834V12.4167C13.6667 12.5272 13.6228 12.6332 13.5446 12.7113C13.4665 12.7895 13.3605 12.8334 13.25 12.8334H12.4167C12.3062 12.8334 12.2002 12.7895 12.122 12.7113C12.0439 12.6332 12 12.5272 12 12.4167V11.5834ZM15.3333 11.5834C15.3333 11.4729 15.3772 11.3669 15.4554 11.2887C15.5335 11.2106 15.6395 11.1667 15.75 11.1667H18.25C18.3605 11.1667 18.4665 11.2106 18.5446 11.2887C18.6228 11.3669 18.6667 11.4729 18.6667 11.5834V12.4167C18.6667 12.5272 18.6228 12.6332 18.5446 12.7113C18.4665 12.7895 18.3605 12.8334 18.25 12.8334H15.75C15.6395 12.8334 15.5335 12.7895 15.4554 12.7113C15.3772 12.6332 15.3333 12.5272 15.3333 12.4167V11.5834ZM17 14.9167C17 14.8062 17.0439 14.7002 17.122 14.6221C17.2002 14.5439 17.3062 14.5 17.4167 14.5H18.25C18.3605 14.5 18.4665 14.5439 18.5446 14.6221C18.6228 14.7002 18.6667 14.8062 18.6667 14.9167V15.75C18.6667 15.8605 18.6228 15.9665 18.5446 16.0447C18.4665 16.1228 18.3605 16.1667 18.25 16.1667H17.4167C17.3062 16.1667 17.2002 16.1228 17.122 16.0447C17.0439 15.9665 17 15.8605 17 15.75V14.9167ZM8.66667 11.5834C8.66667 11.4729 8.71057 11.3669 8.78871 11.2887C8.86685 11.2106 8.97283 11.1667 9.08333 11.1667H9.91667C10.0272 11.1667 10.1332 11.2106 10.2113 11.2887C10.2894 11.3669 10.3333 11.4729 10.3333 11.5834V12.4167C10.3333 12.5272 10.2894 12.6332 10.2113 12.7113C10.1332 12.7895 10.0272 12.8334 9.91667 12.8334H9.08333C8.97283 12.8334 8.86685 12.7895 8.78871 12.7113C8.71057 12.6332 8.66667 12.5272 8.66667 12.4167V11.5834ZM5.33333 11.5834C5.33333 11.4729 5.37723 11.3669 5.45537 11.2887C5.53351 11.2106 5.63949 11.1667 5.75 11.1667H6.58333C6.69384 11.1667 6.79982 11.2106 6.87796 11.2887C6.9561 11.3669 7 11.4729 7 11.5834V12.4167C7 12.5272 6.9561 12.6332 6.87796 12.7113C6.79982 12.7895 6.69384 12.8334 6.58333 12.8334H5.75C5.63949 12.8334 5.53351 12.7895 5.45537 12.7113C5.37723 12.6332 5.33333 12.5272 5.33333 12.4167V11.5834ZM2 11.5834C2 11.4729 2.0439 11.3669 2.12204 11.2887C2.20018 11.2106 2.30616 11.1667 2.41667 11.1667H3.25C3.36051 11.1667 3.46649 11.2106 3.54463 11.2887C3.62277 11.3669 3.66667 11.4729 3.66667 11.5834V12.4167C3.66667 12.5272 3.62277 12.6332 3.54463 12.7113C3.46649 12.7895 3.36051 12.8334 3.25 12.8334H2.41667C2.30616 12.8334 2.20018 12.7895 2.12204 12.7113C2.0439 12.6332 2 12.5272 2 12.4167V11.5834ZM20.3333 8.25004C20.3333 8.13953 20.3772 8.03355 20.4554 7.95541C20.5335 7.87727 20.6395 7.83337 20.75 7.83337H21.5833C21.6938 7.83337 21.7998 7.87727 21.878 7.95541C21.9561 8.03355 22 8.13953 22 8.25004V9.08337C22 9.19388 21.9561 9.29986 21.878 9.378C21.7998 9.45614 21.6938 9.50004 21.5833 9.50004H20.75C20.6395 9.50004 20.5335 9.45614 20.4554 9.378C20.3772 9.29986 20.3333 9.19388 20.3333 9.08337V8.25004ZM17 8.25004C17 8.13953 17.0439 8.03355 17.122 7.95541C17.2002 7.87727 17.3062 7.83337 17.4167 7.83337H18.25C18.3605 7.83337 18.4665 7.87727 18.5446 7.95541C18.6228 8.03355 18.6667 8.13953 18.6667 8.25004V9.08337C18.6667 9.19388 18.6228 9.29986 18.5446 9.378C18.4665 9.45614 18.3605 9.50004 18.25 9.50004H17.4167C17.3062 9.50004 17.2002 9.45614 17.122 9.378C17.0439 9.29986 17 9.19388 17 9.08337V8.25004ZM13.6667 8.25004C13.6667 8.13953 13.7106 8.03355 13.7887 7.95541C13.8668 7.87727 13.9728 7.83337 14.0833 7.83337H14.9167C15.0272 7.83337 15.1332 7.87727 15.2113 7.95541C15.2894 8.03355 15.3333 8.13953 15.3333 8.25004V9.08337C15.3333 9.19388 15.2894 9.29986 15.2113 9.378C15.1332 9.45614 15.0272 9.50004 14.9167 9.50004H14.0833C13.9728 9.50004 13.8668 9.45614 13.7887 9.378C13.7106 9.29986 13.6667 9.19388 13.6667 9.08337V8.25004ZM10.3333 8.25004C10.3333 8.13953 10.3772 8.03355 10.4554 7.95541C10.5335 7.87727 10.6395 7.83337 10.75 7.83337H11.5833C11.6938 7.83337 11.7998 7.87727 11.878 7.95541C11.9561 8.03355 12 8.13953 12 8.25004V9.08337C12 9.19388 11.9561 9.29986 11.878 9.378C11.7998 9.45614 11.6938 9.50004 11.5833 9.50004H10.75C10.6395 9.50004 10.5335 9.45614 10.4554 9.378C10.3772 9.29986 10.3333 9.19388 10.3333 9.08337V8.25004ZM7 8.25004C7 8.13953 7.0439 8.03355 7.12204 7.95541C7.20018 7.87727 7.30616 7.83337 7.41667 7.83337H8.25C8.36051 7.83337 8.46649 7.87727 8.54463 7.95541C8.62277 8.03355 8.66667 8.13953 8.66667 8.25004V9.08337C8.66667 9.19388 8.62277 9.29986 8.54463 9.378C8.46649 9.45614 8.36051 9.50004 8.25 9.50004H7.41667C7.30616 9.50004 7.20018 9.45614 7.12204 9.378C7.0439 9.29986 7 9.19388 7 9.08337V8.25004ZM2 8.25004C2 8.13953 2.0439 8.03355 2.12204 7.95541C2.20018 7.87727 2.30616 7.83337 2.41667 7.83337H4.91667C5.02717 7.83337 5.13315 7.87727 5.21129 7.95541C5.28943 8.03355 5.33333 8.13953 5.33333 8.25004V9.08337C5.33333 9.19388 5.28943 9.29986 5.21129 9.378C5.13315 9.45614 5.02717 9.50004 4.91667 9.50004H2.41667C2.30616 9.50004 2.20018 9.45614 2.12204 9.378C2.0439 9.29986 2 9.19388 2 9.08337V8.25004ZM2 14.9167C2 14.8062 2.0439 14.7002 2.12204 14.6221C2.20018 14.5439 2.30616 14.5 2.41667 14.5H3.25C3.36051 14.5 3.46649 14.5439 3.54463 14.6221C3.62277 14.7002 3.66667 14.8062 3.66667 14.9167V15.75C3.66667 15.8605 3.62277 15.9665 3.54463 16.0447C3.46649 16.1228 3.36051 16.1667 3.25 16.1667H2.41667C2.30616 16.1667 2.20018 16.1228 2.12204 16.0447C2.0439 15.9665 2 15.8605 2 15.75V14.9167ZM5.33333 14.9167C5.33333 14.8062 5.37723 14.7002 5.45537 14.6221C5.53351 14.5439 5.63949 14.5 5.75 14.5H14.9167C15.0272 14.5 15.1332 14.5439 15.2113 14.6221C15.2894 14.7002 15.3333 14.8062 15.3333 14.9167V15.75C15.3333 15.8605 15.2894 15.9665 15.2113 16.0447C15.1332 16.1228 15.0272 16.1667 14.9167 16.1667H5.75C5.63949 16.1667 5.53351 16.1228 5.45537 16.0447C5.37723 15.9665 5.33333 15.8605 5.33333 15.75V14.9167Z" fill="white"/>
</svg>
