<svg width="24" height="24" viewBox="0 0 24 24" fill="none" xmlns="http://www.w3.org/2000/svg">
<path d="M7.5 7.5C7.5 7.89782 7.34197 8.27936 7.06066 8.56066C6.77936 8.84196 6.39782 9 6 9C5.60218 9 5.22064 8.84196 4.93934 8.56066C4.65804 8.27936 4.5 7.89782 4.5 7.5C4.5 7.10218 4.65804 6.72064 4.93934 6.43934C5.22064 6.15804 5.60218 6 6 6C6.39782 6 6.77936 6.15804 7.06066 6.43934C7.34197 6.72064 7.5 7.10218 7.5 7.5Z" fill="white"/>
<path fill-rule="evenodd" clip-rule="evenodd" d="M3.75 3C3.15326 3 2.58097 3.23705 2.15901 3.65901C1.73705 4.08097 1.5 4.65326 1.5 5.25V18H22.5V5.25C22.5 4.65326 22.2629 4.08097 21.841 3.65901C21.419 3.23705 20.8467 3 20.25 3H3.75ZM20.25 4.5C20.4489 4.5 20.6397 4.57902 20.7803 4.71967C20.921 4.86032 21 5.05109 21 5.25V11.8663L16.2313 8.55735C16.1104 8.50647 15.9735 8.48882 15.84 8.5069C15.7064 8.52497 15.583 8.57786 15.4873 8.65806L10.7031 13.7588L7.27288 10.7568C7.14903 10.6876 7.00047 10.6565 6.85241 10.6687C6.70434 10.6809 6.56586 10.7358 6.46046 10.824L3 14.2944V5.25C3 5.05109 3.07902 4.86032 3.21967 4.71967C3.36032 4.57902 3.55109 4.5 3.75 4.5H20.25Z" fill="white"/>
<path d="M0 18.75H24C24 19.3467 23.7629 19.919 23.341 20.341C22.919 20.7629 22.3467 21 21.75 21H2.25C1.65326 21 1.08097 20.7629 0.65901 20.341C0.237053 19.919 0 19.3467 0 18.75Z" fill="white"/>
</svg>
