<svg width="24" height="24" viewBox="0 0 24 24" fill="none" xmlns="http://www.w3.org/2000/svg">
<path fill-rule="evenodd" clip-rule="evenodd" d="M5.93046 1.80546C6.44618 1.28973 7.14565 1 7.875 1H16.125C16.8543 1 17.5538 1.28973 18.0695 1.80546C18.5853 2.32118 18.875 3.02065 18.875 3.75V20.25C18.875 20.9793 18.5853 21.6788 18.0695 22.1945C17.5538 22.7103 16.8543 23 16.125 23H7.875C7.14565 23 6.44618 22.7103 5.93046 22.1945C5.41473 21.6788 5.125 20.9793 5.125 20.25V3.75C5.125 3.02065 5.41473 2.32118 5.93046 1.80546ZM12.9723 19.8473C12.7144 20.1051 12.3647 20.25 12 20.25C11.6353 20.25 11.2856 20.1051 11.0277 19.8473C10.7699 19.5894 10.625 19.2397 10.625 18.875C10.625 18.5103 10.7699 18.1606 11.0277 17.9027C11.2856 17.6449 11.6353 17.5 12 17.5C12.3647 17.5 12.7144 17.6449 12.9723 17.9027C13.2301 18.1606 13.375 18.5103 13.375 18.875C13.375 19.2397 13.2301 19.5894 12.9723 19.8473Z" fill="white"/>
</svg>
