<svg width="24" height="24" viewBox="0 0 24 24" fill="none" xmlns="http://www.w3.org/2000/svg">
<path d="M6 7C6 7.39782 5.84197 7.77936 5.56066 8.06066C5.27936 8.34196 4.89782 8.5 4.5 8.5C4.10218 8.5 3.72064 8.34196 3.43934 8.06066C3.15804 7.77936 3 7.39782 3 7C3 6.60218 3.15804 6.22064 3.43934 5.93934C3.72064 5.65804 4.10218 5.5 4.5 5.5C4.89782 5.5 5.27936 5.65804 5.56066 5.93934C5.84197 6.22064 6 6.60218 6 7Z" fill="white"/>
<path fill-rule="evenodd" clip-rule="evenodd" d="M0 5.625C0 5.625 0 2.625 3 2.625H21C21 2.625 24 2.625 24 5.625V14.625C24 14.625 24 17.625 21 17.625H15C15 18.625 15.125 19.375 15.375 19.875H16.5C16.6989 19.875 16.8897 19.954 17.0303 20.0947C17.171 20.2353 17.25 20.4261 17.25 20.625C17.25 20.8239 17.171 21.0147 17.0303 21.1553C16.8897 21.296 16.6989 21.375 16.5 21.375H7.5C7.30109 21.375 7.11032 21.296 6.96967 21.1553C6.82902 21.0147 6.75 20.8239 6.75 20.625C6.75 20.4261 6.82902 20.2353 6.96967 20.0947C7.11032 19.954 7.30109 19.875 7.5 19.875H8.625C8.875 19.375 9 18.625 9 17.625H3C3 17.625 0 17.625 0 14.625V5.625ZM2.097 4.3425C1.93233 4.45732 1.8009 4.61359 1.716 4.7955C1.58964 5.06023 1.51626 5.34711 1.5 5.64V14.2018L6.2885 9.50196C6.39619 9.41377 6.53768 9.35891 6.68898 9.34667C6.84028 9.33443 6.99207 9.36557 7.11861 9.43482L10.6235 12.4368L15.512 7.33604C15.6099 7.25583 15.7359 7.20295 15.8724 7.18488C16.0088 7.1668 16.1487 7.18445 16.2723 7.23533L22.5 11.4645V5.625C22.5 5.1375 22.383 4.872 22.2825 4.722C22.1677 4.55733 22.0114 4.4259 21.8295 4.341C21.5648 4.21464 21.2779 4.14126 20.985 4.125H3C2.5125 4.125 2.247 4.242 2.097 4.3425Z" fill="white"/>
</svg>
