<svg width="24" height="24" viewBox="0 0 24 24" fill="none" xmlns="http://www.w3.org/2000/svg">
<path d="M10.5 4.27799C10.5974 4.39673 10.657 4.54187 10.6713 4.69476C10.6855 4.84764 10.6537 5.0013 10.58 5.13599C10.0015 6.19734 9.69959 7.38725 9.702 8.59599C9.702 12.617 12.98 15.873 17.02 15.873C17.548 15.8723 18.059 15.819 18.553 15.713C18.7041 15.6807 18.8614 15.6934 19.0054 15.7495C19.1494 15.8057 19.2737 15.9029 19.363 16.029C19.4575 16.1603 19.5057 16.3192 19.5001 16.4808C19.4945 16.6424 19.4354 16.7976 19.332 16.922C18.5476 17.8854 17.5582 18.6616 16.4358 19.1941C15.3134 19.7266 14.0863 20.0019 12.844 20C8.234 20 4.5 16.286 4.5 11.71C4.5 8.26599 6.614 5.31199 9.624 4.05999C9.77389 3.99629 9.94043 3.98311 10.0985 4.02244C10.2565 4.06177 10.3975 4.15147 10.5 4.27799Z" fill="white"/>
</svg>
