<svg width="24" height="24" viewBox="0 0 24 24" fill="none" xmlns="http://www.w3.org/2000/svg">
<path d="M12.0005 22C12.6635 22 13.2994 21.7366 13.7682 21.2678C14.237 20.799 14.5004 20.1631 14.5004 19.5001H9.50063C9.50063 20.1631 9.76401 20.799 10.2328 21.2678C10.7016 21.7366 11.3375 22 12.0005 22ZM13.2442 3.37477C13.2616 3.20097 13.2424 3.02545 13.1879 2.85951C13.1333 2.69358 13.0446 2.54093 12.9274 2.41139C12.8102 2.28186 12.6672 2.17833 12.5076 2.10747C12.3479 2.03661 12.1752 2 12.0005 2C11.8258 2 11.6531 2.03661 11.4934 2.10747C11.3338 2.17833 11.1908 2.28186 11.0736 2.41139C10.9564 2.54093 10.8677 2.69358 10.8131 2.85951C10.7585 3.02545 10.7394 3.20097 10.7568 3.37477C9.34383 3.66169 8.0735 4.42835 7.16115 5.54481C6.2488 6.66128 5.75055 8.05886 5.75084 9.50068C5.75084 10.8731 5.12587 17.0003 3.25098 18.2502H20.75C18.8751 17.0003 18.2502 10.8731 18.2502 9.50068C18.2502 6.47585 16.1003 3.95099 13.2442 3.37477Z" fill="white"/>
</svg>
