<svg width="24" height="24" viewBox="0 0 24 24" fill="none" xmlns="http://www.w3.org/2000/svg">
<path fill-rule="evenodd" clip-rule="evenodd" d="M13.7672 21.2678C13.2984 21.7366 12.6625 22 11.9995 22C11.3365 22 10.7007 21.7366 10.2319 21.2678C9.76304 20.799 9.49966 20.1631 9.49966 19.5001H14.4994C14.4994 20.1631 14.236 20.799 13.7672 21.2678ZM13.1869 2.85951C13.2415 3.02545 13.2606 3.20097 13.2432 3.37477C16.0993 3.95099 18.2492 6.47585 18.2492 9.50068C18.2492 10.8731 18.8741 17.0003 20.749 18.2502H3.25C5.1249 17.0003 5.74986 10.8731 5.74986 9.50068C5.74957 8.05886 6.24783 6.66128 7.16018 5.54481C8.07253 4.42835 9.34285 3.66169 10.7558 3.37477C10.7384 3.20097 10.7576 3.02545 10.8121 2.85951C10.8667 2.69358 10.9554 2.54093 11.0726 2.41139C11.1898 2.28186 11.3328 2.17833 11.4925 2.10747C11.6521 2.03661 11.8248 2 11.9995 2C12.1742 2 12.3469 2.03661 12.5066 2.10747C12.6662 2.17833 12.8093 2.28186 12.9264 2.41139C13.0436 2.54093 13.1324 2.69358 13.1869 2.85951ZM15.2546 10.1929C15.3719 10.0756 15.4379 9.91639 15.4379 9.75042C15.4379 9.58445 15.3719 9.42528 15.2546 9.30792C15.1372 9.19057 14.978 9.12463 14.8121 9.12463C14.6461 9.12463 14.4869 9.19057 14.3696 9.30792L11.0621 12.6167L9.62957 11.1829C9.57146 11.1248 9.50247 11.0787 9.42655 11.0473C9.35062 11.0158 9.26925 10.9996 9.18707 10.9996C9.10489 10.9996 9.02351 11.0158 8.94759 11.0473C8.87167 11.0787 8.80268 11.1248 8.74457 11.1829C8.68646 11.241 8.64036 11.31 8.60891 11.3859C8.57747 11.4619 8.56128 11.5432 8.56128 11.6254C8.56128 11.7076 8.57747 11.789 8.60891 11.8649C8.64036 11.9408 8.68646 12.0098 8.74457 12.0679L10.6196 13.9429C10.6776 14.0011 10.7466 14.0473 10.8225 14.0788C10.8985 14.1103 10.9799 14.1265 11.0621 14.1265C11.1443 14.1265 11.2257 14.1103 11.3016 14.0788C11.3775 14.0473 11.4465 14.0011 11.5046 13.9429L15.2546 10.1929Z" fill="white"/>
</svg>
