<svg width="24" height="24" viewBox="0 0 24 24" fill="none" xmlns="http://www.w3.org/2000/svg">
<path d="M3 4.9918C3 4.46354 3.20985 3.95692 3.58339 3.58339C3.95692 3.20985 4.46354 3 4.9918 3H8.97541C9.50367 3 10.0103 3.20985 10.3838 3.58339C10.7574 3.95692 10.9672 4.46354 10.9672 4.9918V8.97541C10.9672 9.50367 10.7574 10.0103 10.3838 10.3838C10.0103 10.7574 9.50367 10.9672 8.97541 10.9672H4.9918C4.46354 10.9672 3.95692 10.7574 3.58339 10.3838C3.20985 10.0103 3 9.50367 3 8.97541V4.9918ZM13.0328 4.9918C13.0328 4.46354 13.2426 3.95692 13.6162 3.58339C13.9897 3.20985 14.4963 3 15.0246 3H19.0082C19.5365 3 20.0431 3.20985 20.4166 3.58339C20.7901 3.95692 21 4.46354 21 4.9918V8.97541C21 9.50367 20.7901 10.0103 20.4166 10.3838C20.0431 10.7574 19.5365 10.9672 19.0082 10.9672H15.0246C14.4963 10.9672 13.9897 10.7574 13.6162 10.3838C13.2426 10.0103 13.0328 9.50367 13.0328 8.97541V4.9918ZM3 15.0246C3 14.4963 3.20985 13.9897 3.58339 13.6162C3.95692 13.2426 4.46354 13.0328 4.9918 13.0328H8.97541C9.50367 13.0328 10.0103 13.2426 10.3838 13.6162C10.7574 13.9897 10.9672 14.4963 10.9672 15.0246V19.0082C10.9672 19.5365 10.7574 20.0431 10.3838 20.4166C10.0103 20.7901 9.50367 21 8.97541 21H4.9918C4.46354 21 3.95692 20.7901 3.58339 20.4166C3.20985 20.0431 3 19.5365 3 19.0082V15.0246ZM13.0328 15.0246C13.0328 14.4963 13.2426 13.9897 13.6162 13.6162C13.9897 13.2426 14.4963 13.0328 15.0246 13.0328H19.0082C19.5365 13.0328 20.0431 13.2426 20.4166 13.6162C20.7901 13.9897 21 14.4963 21 15.0246V19.0082C21 19.5365 20.7901 20.0431 20.4166 20.4166C20.0431 20.7901 19.5365 21 19.0082 21H15.0246C14.4963 21 13.9897 20.7901 13.6162 20.4166C13.2426 20.0431 13.0328 19.5365 13.0328 19.0082V15.0246Z" fill="white"/>
</svg>
