<svg width="24" height="24" viewBox="0 0 24 24" fill="none" xmlns="http://www.w3.org/2000/svg">
<path fill-rule="evenodd" clip-rule="evenodd" d="M18.5607 23.5607C18.2794 23.842 17.8978 24 17.5 24H6.5C6.10218 24 5.72064 23.842 5.43934 23.5607C5.15804 23.2794 5 22.8978 5 22.5V1.5C5 1.10218 5.15804 0.720644 5.43934 0.43934C5.72064 0.158035 6.10218 0 6.5 0H17.5C17.8978 0 18.2794 0.158035 18.5607 0.43934C18.842 0.720644 19 1.10218 19 1.5V22.5C19 22.8978 18.842 23.2794 18.5607 23.5607ZM7.71967 2.71967C7.57902 2.86032 7.5 3.05109 7.5 3.25C7.5 3.44891 7.57902 3.63968 7.71967 3.78033C7.86032 3.92098 8.05109 4 8.25 4H15.75C15.9489 4 16.1397 3.92098 16.2803 3.78033C16.421 3.63968 16.5 3.44891 16.5 3.25C16.5 3.05109 16.421 2.86032 16.2803 2.71967C16.1397 2.57902 15.9489 2.5 15.75 2.5H8.25C8.05109 2.5 7.86032 2.57902 7.71967 2.71967ZM8.25 20C8.44891 20 8.63968 20.079 8.78033 20.2197C8.92098 20.3603 9 20.5511 9 20.75C9 20.9489 8.92098 21.1397 8.78033 21.2803C8.63968 21.421 8.44891 21.5 8.25 21.5C8.05109 21.5 7.86032 21.421 7.71967 21.2803C7.57902 21.1397 7.5 20.9489 7.5 20.75C7.5 20.5511 7.57902 20.3603 7.71967 20.2197C7.86032 20.079 8.05109 20 8.25 20ZM11.25 20C11.4489 20 11.6397 20.079 11.7803 20.2197C11.921 20.3603 12 20.5511 12 20.75C12 20.9489 11.921 21.1397 11.7803 21.2803C11.6397 21.421 11.4489 21.5 11.25 21.5C11.0511 21.5 10.8603 21.421 10.7197 21.2803C10.579 21.1397 10.5 20.9489 10.5 20.75C10.5 20.5511 10.579 20.3603 10.7197 20.2197C10.8603 20.079 11.0511 20 11.25 20ZM8.25 5.5H15.75C15.9489 5.5 16.1397 5.57902 16.2803 5.71967C16.421 5.86032 16.5 6.05109 16.5 6.25C16.5 6.44891 16.421 6.63968 16.2803 6.78033C16.1397 6.92098 15.9489 7 15.75 7H8.25C8.05109 7 7.86032 6.92098 7.71967 6.78033C7.57902 6.63968 7.5 6.44891 7.5 6.25C7.5 6.05109 7.57902 5.86032 7.71967 5.71967C7.86032 5.57902 8.05109 5.5 8.25 5.5Z" fill="white"/>
</svg>
