<svg width="24" height="24" viewBox="0 0 24 24" fill="none" xmlns="http://www.w3.org/2000/svg">
<path d="M5.69384 19.4118H18.2797L15.6998 16.8319C15.188 17.2296 14.6189 17.5385 13.9924 17.7584C13.3659 17.9783 12.7018 18.0882 12 18.0882C11.2982 18.0882 10.6341 17.9756 10.0076 17.7502C9.38111 17.5249 8.81199 17.2133 8.30022 16.8156L5.69384 19.4118ZM4.58821 18.2797L7.16812 15.6998C6.77038 15.188 6.46154 14.6189 6.24162 13.9924C6.02172 13.3659 5.91177 12.7018 5.91177 12C5.91177 11.2982 6.02444 10.6341 6.24978 10.0076C6.47511 9.38111 6.78665 8.81199 7.1844 8.30022L4.58821 5.69384V18.2797ZM8.3165 14.5514L10.8842 12L8.3165 9.4486C8.05451 9.81377 7.85292 10.2085 7.71172 10.6327C7.57055 11.0569 7.49996 11.5127 7.49996 12C7.49996 12.4873 7.57055 12.9431 7.71172 13.3673C7.85292 13.7915 8.05451 14.1862 8.3165 14.5514ZM12 16.5C12.4873 16.5 12.9431 16.4295 13.3673 16.2883C13.7915 16.1471 14.1862 15.9455 14.5514 15.6835L12 13.1056L9.42213 15.6835C9.7873 15.9455 10.1864 16.1471 10.6194 16.2883C11.0525 16.4295 11.5127 16.5 12 16.5ZM12 10.8679L14.5514 8.3165C14.1862 8.05451 13.7915 7.85292 13.3673 7.71173C12.9431 7.57055 12.4873 7.49996 12 7.49996C11.5127 7.49996 11.0569 7.57055 10.6327 7.71173C10.2085 7.85292 9.81377 8.05451 9.4486 8.3165L12 10.8679ZM15.6835 14.5514C15.9455 14.1862 16.1471 13.7915 16.2883 13.3673C16.4294 12.9431 16.5 12.4873 16.5 12C16.5 11.5127 16.4294 11.0525 16.2883 10.6194C16.1471 10.1864 15.9455 9.7873 15.6835 9.42213L13.1321 11.9735L15.6835 14.5514ZM19.4118 18.2797V5.69384L16.8156 8.30022C17.2133 8.81199 17.5249 9.38111 17.7502 10.0076C17.9756 10.6341 18.0882 11.2982 18.0882 12C18.0882 12.7018 17.9783 13.3659 17.7584 13.9924C17.5385 14.6189 17.2296 15.188 16.8319 15.6998L19.4118 18.2797ZM15.6998 7.1844L18.3062 4.58821H5.72031L8.30022 7.16812C8.81199 6.77038 9.38111 6.46154 10.0076 6.24162C10.6341 6.02172 11.2982 5.91177 12 5.91177C12.7018 5.91177 13.3659 6.02444 13.9924 6.24978C14.6189 6.47511 15.188 6.78666 15.6998 7.1844ZM3 21V3H21V21H3Z" fill="white"/>
</svg>
