<svg width="24" height="24" viewBox="0 0 24 24" fill="none" xmlns="http://www.w3.org/2000/svg">
<path d="M2 12C2 9.34784 3.05357 6.8043 4.92893 4.92893C6.8043 3.05357 9.34784 2 12 2C14.6522 2 17.1957 3.05357 19.0711 4.92893C20.9464 6.8043 22 9.34784 22 12C22 14.6522 20.9464 17.1957 19.0711 19.0711C17.1957 20.9464 14.6522 22 12 22C9.34784 22 6.8043 20.9464 4.92893 19.0711C3.05357 17.1957 2 14.6522 2 12ZM11.375 3.34625C10.5375 3.60125 9.70625 4.37125 9.01625 5.665C8.83708 6.00083 8.6725 6.36417 8.5225 6.755C9.40375 6.95125 10.3625 7.07625 11.375 7.11375V3.34625ZM7.31125 6.42375C7.48958 5.94292 7.69 5.49375 7.9125 5.07625C8.13005 4.6684 8.37959 4.27843 8.65875 3.91C7.59443 4.35071 6.6276 4.99724 5.81375 5.8125C6.26708 6.04333 6.76625 6.24625 7.31125 6.42375ZM6.38625 11.375C6.43125 10.0375 6.62125 8.76625 6.93125 7.615C6.2543 7.39947 5.5993 7.12031 4.975 6.78125C3.97918 8.1178 3.38825 9.71228 3.2725 11.375H6.38625ZM8.13625 7.94875C7.8411 9.06836 7.67337 10.2177 7.63625 11.375H11.375V8.36375C10.2375 8.32625 9.14625 8.1825 8.13625 7.94875ZM12.625 8.3625V11.375H16.3625C16.3258 10.2178 16.1585 9.06841 15.8637 7.94875C14.8537 8.1825 13.7625 8.32375 12.625 8.3625ZM7.6375 12.625C7.68125 13.8588 7.8575 15.0175 8.13625 16.0513C9.20006 15.8097 10.2846 15.6712 11.375 15.6375V12.625H7.6375ZM12.625 12.625V15.6363C13.7625 15.6738 14.8537 15.8175 15.8637 16.0513C16.1425 15.0175 16.3188 13.8588 16.3638 12.625H12.625ZM8.5225 17.245C8.6725 17.6358 8.83708 17.9992 9.01625 18.335C9.70625 19.6287 10.5387 20.3975 11.375 20.6538V16.8875C10.3625 16.925 9.40375 17.0487 8.5225 17.245ZM8.66 20.09C8.3804 19.7216 8.13045 19.3316 7.9125 18.9237C7.68276 18.4878 7.48191 18.0373 7.31125 17.575C6.79707 17.7403 6.29642 17.9451 5.81375 18.1875C6.6276 19.0028 7.59568 19.6493 8.66 20.09ZM6.93125 16.385C6.60715 15.1564 6.42388 13.895 6.385 12.625H3.2725C3.38825 14.2877 3.97918 15.8822 4.975 17.2188C5.5625 16.8962 6.21875 16.6163 6.93125 16.385ZM15.3413 20.09C16.405 19.6495 17.3714 19.0034 18.185 18.1888C17.7027 17.9464 17.2025 17.7417 16.6888 17.5763C16.518 18.0381 16.3172 18.4882 16.0875 18.9237C15.8699 19.3316 15.6204 19.7216 15.3413 20.09ZM12.625 16.8863V20.6538C13.4625 20.3988 14.2938 19.6287 14.9838 18.335C15.1638 17.9992 15.3283 17.6358 15.4775 17.245C14.5396 17.0391 13.5847 16.9182 12.625 16.8863ZM17.0688 16.385C17.7812 16.6163 18.4375 16.8962 19.025 17.2188C20.0208 15.8822 20.6118 14.2877 20.7275 12.625H17.615C17.5761 13.895 17.3929 15.1564 17.0688 16.385ZM20.7275 11.375C20.6118 9.71228 20.0208 8.1178 19.025 6.78125C18.4375 7.10375 17.7812 7.38375 17.0688 7.615C17.3788 8.765 17.5687 10.0375 17.615 11.375H20.7275ZM16.0875 5.07625C16.3092 5.49458 16.51 5.94375 16.69 6.42375C17.2033 6.25828 17.7031 6.05351 18.185 5.81125C17.3713 4.99702 16.4049 4.35136 15.3413 3.91125C15.6138 4.265 15.8638 4.6575 16.0875 5.07625ZM15.4775 6.755C15.3348 6.38214 15.1699 6.01815 14.9838 5.665C14.2938 4.37125 13.4625 3.6025 12.625 3.34625V7.1125C13.6375 7.075 14.5962 6.95125 15.4775 6.755Z" fill="white"/>
</svg>
