<svg width="24" height="24" viewBox="0 0 24 24" fill="none" xmlns="http://www.w3.org/2000/svg">
<path d="M9.99079 4.52436C9.35379 4.78823 8.77501 5.17499 8.2875 5.66256C8.14605 5.79918 7.9566 5.87477 7.75995 5.87306C7.5633 5.87136 7.37519 5.79248 7.23614 5.65342C7.09708 5.51437 7.0182 5.32626 7.01649 5.12961C7.01478 4.93296 7.09038 4.74351 7.227 4.60206C7.8538 3.97525 8.59791 3.47805 9.41687 3.13882C10.2358 2.7996 11.1136 2.625 12 2.625C12.8864 2.625 13.7642 2.7996 14.5831 3.13882C15.4021 3.47805 16.1462 3.97525 16.773 4.60206C16.8446 4.67124 16.9018 4.754 16.9411 4.84551C16.9804 4.93701 17.0011 5.03542 17.0019 5.13501C17.0028 5.23459 16.9838 5.33335 16.9461 5.42552C16.9084 5.5177 16.8527 5.60144 16.7823 5.67185C16.7119 5.74227 16.6281 5.79796 16.536 5.83568C16.4438 5.87339 16.345 5.89236 16.2454 5.8915C16.1459 5.89063 16.0474 5.86994 15.9559 5.83063C15.8644 5.79133 15.7817 5.73419 15.7125 5.66256C15.225 5.17499 14.6462 4.78823 14.0092 4.52436C13.3722 4.26049 12.6895 4.12468 12 4.12468C11.3105 4.12468 10.6278 4.26049 9.99079 4.52436Z" fill="white"/>
<path d="M12 7.12704C11.4037 7.12704 10.8319 7.36371 10.41 7.78506L10.4085 7.78356C10.267 7.92018 10.0776 7.99577 9.88095 7.99406C9.6843 7.99236 9.49619 7.91348 9.35714 7.77442C9.21808 7.63537 9.1392 7.44726 9.13749 7.25061C9.13579 7.05396 9.21138 6.86451 9.348 6.72306C9.69623 6.37473 10.1097 6.09842 10.5647 5.90991C11.0197 5.72139 11.5075 5.62436 12 5.62436C12.4925 5.62436 12.9803 5.72139 13.4353 5.90991C13.8903 6.09842 14.3038 6.37473 14.652 6.72306C14.7928 6.86389 14.8719 7.0549 14.8719 7.25406C14.8719 7.45322 14.7928 7.64423 14.652 7.78506C14.5112 7.92589 14.3202 8.00501 14.121 8.00501C13.9218 8.00501 13.7308 7.92589 13.59 7.78506C13.1681 7.36371 12.5963 7.12704 12 7.12704Z" fill="white"/>
<path fill-rule="evenodd" clip-rule="evenodd" d="M4.461 4.63806C4.43275 4.54121 4.38525 4.45105 4.32135 4.37298C4.25744 4.29492 4.17844 4.23055 4.08908 4.18372C3.99972 4.1369 3.90182 4.10859 3.80126 4.10048C3.7007 4.09238 3.59954 4.10464 3.50383 4.13655C3.40812 4.16845 3.31983 4.21933 3.24424 4.28616C3.16866 4.35298 3.10733 4.43436 3.06394 4.52544C3.02054 4.61652 2.99596 4.71541 2.99168 4.81621C2.98739 4.917 3.00349 5.01763 3.039 5.11206L5.709 13.1251H2.25C1.65326 13.1251 1.08097 13.3621 0.65901 13.7841C0.237053 14.206 0 14.7783 0 15.3751V18.3751C0 18.9718 0.237053 19.5441 0.65901 19.966C1.08097 20.388 1.65326 20.6251 2.25 20.6251H3C3 20.824 3.07902 21.0147 3.21967 21.1554C3.36032 21.296 3.55109 21.3751 3.75 21.3751H6.75C6.94891 21.3751 7.13968 21.296 7.28033 21.1554C7.42098 21.0147 7.5 20.824 7.5 20.6251H16.5C16.5 20.824 16.579 21.0147 16.7197 21.1554C16.8603 21.296 17.0511 21.3751 17.25 21.3751H20.25C20.4489 21.3751 20.6397 21.296 20.7803 21.1554C20.921 21.0147 21 20.824 21 20.6251H21.75C22.3467 20.6251 22.919 20.388 23.341 19.966C23.7629 19.5441 24 18.9718 24 18.3751V15.3751C24 14.7783 23.7629 14.206 23.341 13.7841C22.919 13.3621 22.3467 13.1251 21.75 13.1251H18.291L20.961 5.11206C20.9965 5.01763 21.0126 4.917 21.0083 4.81621C21.004 4.71541 20.9795 4.61652 20.9361 4.52544C20.8927 4.43436 20.8313 4.35298 20.7558 4.28616C20.6802 4.21933 20.5919 4.16845 20.4962 4.13655C20.4005 4.10464 20.2993 4.09238 20.1987 4.10048C20.0982 4.10859 20.0003 4.1369 19.9109 4.18372C19.8216 4.23055 19.7426 4.29492 19.6787 4.37298C19.6147 4.45105 19.5672 4.54121 19.539 4.63806L16.71 13.1251H7.29L4.461 4.63806ZM3.21967 17.4053C3.36032 17.546 3.55109 17.625 3.75 17.625C3.94891 17.625 4.13968 17.546 4.28033 17.4053C4.42098 17.2647 4.5 17.0739 4.5 16.875C4.5 16.6761 4.42098 16.4853 4.28033 16.3447C4.13968 16.204 3.94891 16.125 3.75 16.125C3.55109 16.125 3.36032 16.204 3.21967 16.3447C3.07902 16.4853 3 16.6761 3 16.875C3 17.0739 3.07902 17.2647 3.21967 17.4053ZM10.7197 17.4053C10.579 17.2647 10.5 17.0739 10.5 16.875C10.5 16.6761 10.579 16.4853 10.7197 16.3447C10.8603 16.204 11.0511 16.125 11.25 16.125C11.4489 16.125 11.6397 16.204 11.7803 16.3447C11.921 16.4853 12 16.6761 12 16.875C12 17.0739 11.921 17.2647 11.7803 17.4053C11.6397 17.546 11.4489 17.625 11.25 17.625C11.0511 17.625 10.8603 17.546 10.7197 17.4053ZM14.25 17.625C14.0511 17.625 13.8603 17.546 13.7197 17.4053C13.579 17.2647 13.5 17.0739 13.5 16.875C13.5 16.6761 13.579 16.4853 13.7197 16.3447C13.8603 16.204 14.0511 16.125 14.25 16.125C14.4489 16.125 14.6397 16.204 14.7803 16.3447C14.921 16.4853 15 16.6761 15 16.875C15 17.0739 14.921 17.2647 14.7803 17.4053C14.6397 17.546 14.4489 17.625 14.25 17.625ZM16.7197 17.4053C16.579 17.2647 16.5 17.0739 16.5 16.875C16.5 16.6761 16.579 16.4853 16.7197 16.3447C16.8603 16.204 17.0511 16.125 17.25 16.125C17.4489 16.125 17.6397 16.204 17.7803 16.3447C17.921 16.4853 18 16.6761 18 16.875C18 17.0739 17.921 17.2647 17.7803 17.4053C17.6397 17.546 17.4489 17.625 17.25 17.625C17.0511 17.625 16.8603 17.546 16.7197 17.4053ZM19.5 16.875C19.5 17.0739 19.579 17.2647 19.7197 17.4053C19.8603 17.546 20.0511 17.625 20.25 17.625C20.4489 17.625 20.6397 17.546 20.7803 17.4053C20.921 17.2647 21 17.0739 21 16.875C21 16.6761 20.921 16.4853 20.7803 16.3447C20.6397 16.204 20.4489 16.125 20.25 16.125C20.0511 16.125 19.8603 16.204 19.7197 16.3447C19.579 16.4853 19.5 16.6761 19.5 16.875Z" fill="white"/>
<path d="M12.5303 9.90539C12.671 9.76474 12.75 9.57397 12.75 9.37506C12.75 9.17615 12.671 8.98538 12.5303 8.84473C12.3897 8.70408 12.1989 8.62506 12 8.62506C11.8011 8.62506 11.6103 8.70408 11.4697 8.84473C11.329 8.98538 11.25 9.17615 11.25 9.37506C11.25 9.57397 11.329 9.76474 11.4697 9.90539C11.6103 10.046 11.8011 10.1251 12 10.1251C12.1989 10.1251 12.3897 10.046 12.5303 9.90539Z" fill="white"/>
</svg>
