<svg width="24" height="24" viewBox="0 0 24 24" fill="none" xmlns="http://www.w3.org/2000/svg">
<path d="M14.5 5.5H17V9.25H14.5V5.5Z" fill="white"/>
<path fill-rule="evenodd" clip-rule="evenodd" d="M2.54917 3.54918C2.90081 3.19754 3.37772 3 3.875 3H18.3575C18.6038 2.99989 18.8477 3.04829 19.0752 3.14245C19.3028 3.2366 19.5096 3.37467 19.6838 3.54875L21.45 5.3175C21.8017 5.66879 21.9996 6.14539 22 6.6425V21.125C22 21.6223 21.8025 22.0992 21.4508 22.4508C21.0992 22.8025 20.6223 23 20.125 23H3.875C3.37772 23 2.90081 22.8025 2.54917 22.4508C2.19754 22.0992 2 21.6223 2 21.125V4.875C2 4.37772 2.19754 3.90081 2.54917 3.54918ZM6.11612 10.1339C6.35054 10.3683 6.66848 10.5 7 10.5H17C17.3315 10.5 17.6495 10.3683 17.8839 10.1339C18.1183 9.89946 18.25 9.58152 18.25 9.25V4.25H5.75V9.25C5.75 9.58152 5.8817 9.89946 6.11612 10.1339ZM18.25 14.25H5.75C5.41848 14.25 5.10054 14.3817 4.86612 14.6161C4.6317 14.8505 4.5 15.1685 4.5 15.5V21.75H19.5V15.5C19.5 15.1685 19.3683 14.8505 19.1339 14.6161C18.8995 14.3817 18.5815 14.25 18.25 14.25Z" fill="white"/>
</svg>
