<svg width="24" height="24" viewBox="0 0 24 24" fill="none" xmlns="http://www.w3.org/2000/svg">
<path fill-rule="evenodd" clip-rule="evenodd" d="M16.6781 14.9287C17.8884 13.2771 18.4305 11.2294 18.1959 9.19532C17.9613 7.16122 16.9673 5.2907 15.4128 3.95799C13.8583 2.62528 11.8579 1.92866 9.81187 2.00749C7.76581 2.08633 5.82496 2.93482 4.37762 4.38319C2.93028 5.83157 2.08318 7.77303 2.00581 9.81915C1.92843 11.8653 2.62649 13.8652 3.96031 15.4187C5.29413 16.9722 7.16536 17.9649 9.19963 18.198C11.2336 18.4311 13.2805 17.8878 14.9311 16.6767C14.9676 16.7265 15.0083 16.7742 15.0531 16.8198L19.8654 21.6322C20.0998 21.8667 20.4178 21.9985 20.7493 21.9987C21.0809 21.9988 21.399 21.8672 21.6335 21.6328C21.8681 21.3984 21.9999 21.0805 22 20.7489C22.0001 20.4173 21.8685 20.0993 21.6341 19.8647L16.8218 15.0524C16.7771 15.0071 16.7291 14.9666 16.6781 14.9287ZM10.1071 16.7001C13.7487 16.7001 16.7008 13.748 16.7008 10.1063C16.7008 6.4647 13.7487 3.51257 10.1071 3.51257C6.46543 3.51257 3.51331 6.4647 3.51331 10.1063C3.51331 13.748 6.46543 16.7001 10.1071 16.7001Z" fill="white"/>
</svg>
