<svg width="24" height="24" viewBox="0 0 24 24" fill="none" xmlns="http://www.w3.org/2000/svg">
<path d="M4.93883 21.3617C4.83158 21.9685 5.43382 22.4427 5.96456 22.1721L12.0007 19.0891L18.0355 22.1721C18.5662 22.4427 19.1684 21.9685 19.0612 21.3631L17.92 14.8993L22.7626 10.3131C23.2164 9.88398 22.9826 9.09957 22.3749 9.01484L15.6403 8.06372L12.6373 2.1506C12.5801 2.03074 12.4899 1.92947 12.377 1.85855C12.2642 1.78764 12.1335 1.75 12 1.75C11.8665 1.75 11.7358 1.78764 11.623 1.85855C11.5102 1.92947 11.4199 2.03074 11.3627 2.1506L8.35976 8.06508L1.62514 9.01621C1.01877 9.10094 0.783652 9.88534 1.23602 10.3144L6.08006 14.9006L4.93883 21.3645V21.3617ZM11.6831 17.5805L6.61492 20.1687L7.56915 14.7612C7.59212 14.6368 7.58367 14.5086 7.54456 14.3881C7.50545 14.2677 7.43689 14.1588 7.34503 14.0711L3.34936 10.2857L8.92075 9.49861C9.03593 9.48074 9.14511 9.43568 9.23914 9.36719C9.33316 9.29871 9.40929 9.20881 9.46112 9.10504L11.9979 4.10615L14.5375 9.10504C14.5894 9.20881 14.6655 9.29871 14.7595 9.36719C14.8535 9.43568 14.9627 9.48074 15.0779 9.49861L20.6493 10.2844L16.6536 14.0698C16.5615 14.1575 16.4929 14.2667 16.4537 14.3874C16.4146 14.5081 16.4063 14.6365 16.4295 14.7612L17.3837 20.1687L12.3156 17.5805C12.2177 17.5299 12.109 17.5035 11.9986 17.5035C11.8883 17.5035 11.781 17.5299 11.6831 17.5805Z" fill="white"/>
</svg>
