<svg width="24" height="24" viewBox="0 0 24 24" fill="none" xmlns="http://www.w3.org/2000/svg">
<path d="M8.35997 8.06247L11.3628 2.14906C11.421 2.03049 11.5112 1.93037 11.6234 1.85989C11.7356 1.78941 11.8653 1.75136 11.998 1.75C12.2496 1.75 12.5012 1.88256 12.6374 2.14906L15.6402 8.06247L22.3746 9.01365C22.5421 9.0406 22.6953 9.12379 22.8086 9.24937C22.922 9.37495 22.9886 9.53533 22.9974 9.7038C23.0068 9.8161 22.9907 9.92906 22.9502 10.0343C22.9097 10.1396 22.846 10.2345 22.7637 10.3119L17.9198 14.8984L19.061 21.3625C19.1682 21.968 18.566 22.4422 18.0353 22.1716L11.998 19.0885L5.96348 22.1716C5.90053 22.2045 5.83281 22.2276 5.76275 22.2399C5.29252 22.3219 4.8443 21.8928 4.93779 21.3625L6.07898 14.8984L1.2365 10.3119C1.16122 10.2412 1.10138 10.1557 1.0607 10.061C1.02002 9.96625 0.999361 9.86421 1.00002 9.7612C1.00145 9.61575 1.04179 9.47331 1.11688 9.34847C1.17082 9.25817 1.24459 9.18116 1.33269 9.12318C1.42078 9.0652 1.52091 9.02776 1.6256 9.01365L8.35997 8.06247ZM11.998 17.5032C12.109 17.5027 12.2184 17.529 12.317 17.5797L17.385 20.1681L16.4308 14.7603C16.4076 14.636 16.4159 14.5078 16.4547 14.3874C16.4936 14.267 16.5619 14.158 16.6535 14.0702L20.6504 10.2846L15.0792 9.49744C14.964 9.47957 14.8549 9.4345 14.7608 9.36602C14.6668 9.29753 14.5907 9.20762 14.5389 9.10385L11.9994 4.10471L11.998 4.10881V17.5032Z" fill="white"/>
</svg>
