<svg width="24" height="24" viewBox="0 0 24 24" fill="none" xmlns="http://www.w3.org/2000/svg">
<path d="M17 12C17 13.3261 16.4732 14.5979 15.5355 15.5355C14.5979 16.4732 13.3261 17 12 17C10.6739 17 9.40215 16.4732 8.46447 15.5355C7.52678 14.5979 7 13.3261 7 12C7 10.6739 7.52678 9.40215 8.46447 8.46447C9.40215 7.52678 10.6739 7 12 7C13.3261 7 14.5979 7.52678 15.5355 8.46447C16.4732 9.40215 17 10.6739 17 12ZM12 2C12.1658 2 12.3247 2.06585 12.4419 2.18306C12.5592 2.30027 12.625 2.45924 12.625 2.625V5.125C12.625 5.29076 12.5592 5.44973 12.4419 5.56694C12.3247 5.68415 12.1658 5.75 12 5.75C11.8342 5.75 11.6753 5.68415 11.5581 5.56694C11.4408 5.44973 11.375 5.29076 11.375 5.125V2.625C11.375 2.45924 11.4408 2.30027 11.5581 2.18306C11.6753 2.06585 11.8342 2 12 2ZM12 18.25C12.1658 18.25 12.3247 18.3158 12.4419 18.4331C12.5592 18.5503 12.625 18.7092 12.625 18.875V21.375C12.625 21.5408 12.5592 21.6997 12.4419 21.8169C12.3247 21.9342 12.1658 22 12 22C11.8342 22 11.6753 21.9342 11.5581 21.8169C11.4408 21.6997 11.375 21.5408 11.375 21.375V18.875C11.375 18.7092 11.4408 18.5503 11.5581 18.4331C11.6753 18.3158 11.8342 18.25 12 18.25ZM22 12C22 12.1658 21.9342 12.3247 21.8169 12.4419C21.6997 12.5592 21.5408 12.625 21.375 12.625H18.875C18.7092 12.625 18.5503 12.5592 18.4331 12.4419C18.3158 12.3247 18.25 12.1658 18.25 12C18.25 11.8342 18.3158 11.6753 18.4331 11.5581C18.5503 11.4408 18.7092 11.375 18.875 11.375H21.375C21.5408 11.375 21.6997 11.4408 21.8169 11.5581C21.9342 11.6753 22 11.8342 22 12ZM5.75 12C5.75 12.1658 5.68415 12.3247 5.56694 12.4419C5.44973 12.5592 5.29076 12.625 5.125 12.625H2.625C2.45924 12.625 2.30027 12.5592 2.18306 12.4419C2.06585 12.3247 2 12.1658 2 12C2 11.8342 2.06585 11.6753 2.18306 11.5581C2.30027 11.4408 2.45924 11.375 2.625 11.375H5.125C5.29076 11.375 5.44973 11.4408 5.56694 11.5581C5.68415 11.6753 5.75 11.8342 5.75 12ZM19.0712 4.92875C19.1884 5.04595 19.2542 5.2049 19.2542 5.37063C19.2542 5.53635 19.1884 5.6953 19.0712 5.8125L17.3038 7.58125C17.2456 7.63928 17.1767 7.68529 17.1008 7.71666C17.0249 7.74804 16.9436 7.76416 16.8614 7.7641C16.6956 7.76398 16.5366 7.69798 16.4194 7.58063C16.3613 7.52252 16.3153 7.45355 16.284 7.37765C16.2526 7.30176 16.2365 7.22043 16.2365 7.13831C16.2366 6.97246 16.3026 6.81344 16.42 6.69625L18.1875 4.92875C18.3047 4.81158 18.4636 4.74576 18.6294 4.74576C18.7951 4.74576 18.954 4.81158 19.0712 4.92875ZM7.58 16.42C7.69717 16.5372 7.76299 16.6961 7.76299 16.8619C7.76299 17.0276 7.69717 17.1865 7.58 17.3038L5.8125 19.0712C5.69462 19.1851 5.53675 19.2481 5.37287 19.2467C5.209 19.2452 5.05224 19.1795 4.93636 19.0636C4.82048 18.9478 4.75475 18.791 4.75333 18.6271C4.7519 18.4633 4.8149 18.3054 4.92875 18.1875L6.69625 16.42C6.81345 16.3028 6.9724 16.237 7.13812 16.237C7.30385 16.237 7.4628 16.3028 7.58 16.42ZM19.0712 19.0712C18.954 19.1884 18.7951 19.2542 18.6294 19.2542C18.4636 19.2542 18.3047 19.1884 18.1875 19.0712L16.42 17.3038C16.3062 17.1859 16.2432 17.028 16.2446 16.8641C16.246 16.7003 16.3117 16.5435 16.4276 16.4276C16.5435 16.3117 16.7003 16.246 16.8641 16.2446C17.028 16.2432 17.1859 16.3062 17.3038 16.42L19.0712 18.1875C19.1884 18.3047 19.2542 18.4636 19.2542 18.6294C19.2542 18.7951 19.1884 18.954 19.0712 19.0712ZM7.58 7.58125C7.4628 7.69842 7.30385 7.76424 7.13812 7.76424C6.9724 7.76424 6.81345 7.69842 6.69625 7.58125L4.92875 5.8125C4.86906 5.75485 4.82144 5.68588 4.78869 5.60963C4.75593 5.53338 4.73869 5.45136 4.73797 5.36838C4.73725 5.28539 4.75306 5.20309 4.78449 5.12628C4.81591 5.04947 4.86232 4.97969 4.921 4.921C4.97969 4.86232 5.04947 4.81591 5.12628 4.78449C5.20309 4.75306 5.28539 4.73725 5.36838 4.73797C5.45136 4.73869 5.53338 4.75593 5.60963 4.78869C5.68588 4.82144 5.75485 4.86906 5.8125 4.92875L7.58 6.69625C7.6382 6.75431 7.68438 6.82328 7.71589 6.89921C7.7474 6.97514 7.76362 7.05654 7.76362 7.13875C7.76362 7.22096 7.7474 7.30236 7.71589 7.37829C7.68438 7.45422 7.6382 7.52319 7.58 7.58125Z" fill="white"/>
</svg>
