<svg width="24" height="24" viewBox="0 0 24 24" fill="none" xmlns="http://www.w3.org/2000/svg">
<path d="M14.1162 6.24824C12.3236 6.99077 8.74301 8.52625 3.37445 10.8547C2.50425 11.1984 2.04766 11.5361 2.00469 11.8676C1.93562 12.4245 2.63777 12.6446 3.59315 12.9448L3.99603 13.0708C4.93529 13.3756 6.20146 13.7308 6.85757 13.7446C7.45612 13.7599 8.1222 13.5154 8.85581 13.0112C13.8729 9.64081 16.462 7.93727 16.6232 7.9006C16.7383 7.8731 16.8994 7.84101 17.0053 7.93727C17.1112 8.03352 17.102 8.21228 17.0905 8.26041C17.0215 8.55604 14.2658 11.1045 12.8408 12.4245C12.3965 12.8371 12.0811 13.1281 12.0166 13.1946C11.8747 13.339 11.7304 13.4811 11.5838 13.6208C10.709 14.4596 10.0552 15.0876 11.6184 16.1143C12.3712 16.6093 12.9743 17.0149 13.5752 17.4229C14.229 17.8675 14.8828 18.3098 15.73 18.8644C15.9448 19.005 16.152 19.1478 16.3515 19.293C17.1135 19.8338 17.8019 20.3197 18.6468 20.2417C19.1394 20.1959 19.6482 19.7376 19.906 18.3625C20.5161 15.1151 21.7155 8.08165 21.9917 5.18257C22.0091 4.94158 21.9991 4.69941 21.9618 4.46066C21.9395 4.26817 21.8459 4.09087 21.6994 3.96335C21.4896 3.81997 21.2401 3.74545 20.9857 3.75022C20.2951 3.76167 19.2292 4.13065 14.1162 6.24824Z" fill="white"/>
</svg>
