<svg width="24" height="24" viewBox="0 0 24 24" fill="none" xmlns="http://www.w3.org/2000/svg">
<path d="M12.0016 21C10.7568 21 9.58677 20.7638 8.49148 20.2914C7.39618 19.8189 6.44342 19.1778 5.63322 18.368C4.82299 17.5581 4.18157 16.6058 3.70894 15.511C3.23631 14.4162 3 13.2464 3 12.0016C3 10.7568 3.23621 9.58677 3.70863 8.49148C4.18106 7.39618 4.82219 6.44343 5.63203 5.63322C6.44189 4.823 7.39423 4.18157 8.48904 3.70894C9.58384 3.23631 10.7536 3 11.9984 3C13.2432 3 14.4132 3.23621 15.5085 3.70863C16.6038 4.18106 17.5566 4.82219 18.3668 5.63203C19.177 6.44189 19.8184 7.39423 20.2911 8.48904C20.7637 9.58384 21 10.7536 21 11.9984C21 13.2432 20.7638 14.4132 20.2914 15.5085C19.8189 16.6038 19.1778 17.5566 18.368 18.3668C17.5581 19.177 16.6058 19.8184 15.511 20.2911C14.4162 20.7637 13.2464 21 12.0016 21ZM12.7105 19.5352C14.6259 19.3531 16.2495 18.5524 17.5813 17.1331C18.9131 15.7139 19.579 14.0028 19.579 12C19.579 9.99716 18.9161 8.28916 17.5904 6.876C16.2647 5.46284 14.638 4.65909 12.7105 4.46475V19.5352Z" fill="white"/>
</svg>
