<svg width="24" height="24" viewBox="0 0 24 24" fill="none" xmlns="http://www.w3.org/2000/svg">
<path d="M9.90125 9.52C9.56375 9.295 8.44375 8.5175 8.44375 8.5175C9.38875 7.16625 10.635 6.64 12.3587 6.64C13.5775 6.64 14.6125 7.04875 15.3512 7.825C16.09 8.60125 16.5112 9.71125 16.6075 11.13C17.0175 11.3025 17.3946 11.5042 17.7387 11.735C19.125 12.6663 19.8875 14.06 19.8875 15.6562C19.8875 19.0513 17.105 22 12.0675 22C7.7425 22 3.25 19.4837 3.25 11.9925C3.25 4.5425 7.6025 2 12.055 2C14.1125 2 18.9375 2.30375 20.75 8.295L19.05 8.73625C17.645 4.4675 14.7037 3.7875 12.0075 3.7875C7.55125 3.7875 5.03 6.50125 5.03 12.275C5.03 17.4538 7.8475 20.2038 12.0675 20.2038C15.5387 20.2038 18.1263 18.4 18.1263 15.7587C18.1263 13.9613 16.6162 13.1 16.5387 13.1C16.2437 14.6425 15.4537 17.2375 11.9838 17.2375C9.96125 17.2375 8.2175 15.84 8.2175 14.01C8.2175 11.3975 10.6975 10.4513 12.655 10.4513C13.3875 10.4513 14.2725 10.5013 14.7338 10.5938C14.7338 9.7975 14.0587 8.43375 12.3587 8.43375C10.7962 8.43375 10.4013 8.94 9.9 9.51875L9.90125 9.52ZM12.895 12.2375C10.345 12.2375 10.015 13.325 10.015 14.0075C10.015 15.105 11.3188 15.4675 12.015 15.4675C13.29 15.4675 14.5988 15.115 14.805 12.4387C14.1791 12.2927 13.5375 12.2251 12.895 12.2375Z" fill="white"/>
</svg>
