<svg width="24" height="24" viewBox="0 0 24 24" fill="none" xmlns="http://www.w3.org/2000/svg">
<path d="M1 7.1C1 6.54305 1.2173 6.0089 1.60409 5.61508C1.99089 5.22125 2.51549 5 3.0625 5H20.9375C21.4845 5 22.0091 5.22125 22.3959 5.61508C22.7827 6.0089 23 6.54305 23 7.1V9.2C23 9.38565 22.9276 9.5637 22.7986 9.69497C22.6697 9.82625 22.4948 9.9 22.3125 9.9C21.7655 9.9 21.2409 10.1212 20.8541 10.5151C20.4673 10.9089 20.25 11.443 20.25 12C20.25 12.557 20.4673 13.0911 20.8541 13.4849C21.2409 13.8788 21.7655 14.1 22.3125 14.1C22.4948 14.1 22.6697 14.1737 22.7986 14.305C22.9276 14.4363 23 14.6143 23 14.8V16.9C23 17.457 22.7827 17.9911 22.3959 18.3849C22.0091 18.7788 21.4845 19 20.9375 19H3.0625C2.51549 19 1.99089 18.7788 1.60409 18.3849C1.2173 17.9911 1 17.457 1 16.9L1 14.8C1 14.6143 1.07243 14.4363 1.20136 14.305C1.3303 14.1737 1.50516 14.1 1.6875 14.1C2.23451 14.1 2.75911 13.8788 3.14591 13.4849C3.5327 13.0911 3.75 12.557 3.75 12C3.75 11.443 3.5327 10.9089 3.14591 10.5151C2.75911 10.1212 2.23451 9.9 1.6875 9.9C1.50516 9.9 1.3303 9.82625 1.20136 9.69497C1.07243 9.5637 1 9.38565 1 9.2V7.1ZM6.5 8.5C6.5 8.68565 6.57243 8.8637 6.70136 8.99497C6.8303 9.12625 7.00516 9.2 7.1875 9.2H16.8125C16.9948 9.2 17.1697 9.12625 17.2986 8.99497C17.4276 8.8637 17.5 8.68565 17.5 8.5C17.5 8.31435 17.4276 8.1363 17.2986 8.00503C17.1697 7.87375 16.9948 7.8 16.8125 7.8H7.1875C7.00516 7.8 6.8303 7.87375 6.70136 8.00503C6.57243 8.1363 6.5 8.31435 6.5 8.5ZM6.5 15.5C6.5 15.6857 6.57243 15.8637 6.70136 15.995C6.8303 16.1263 7.00516 16.2 7.1875 16.2H16.8125C16.9948 16.2 17.1697 16.1263 17.2986 15.995C17.4276 15.8637 17.5 15.6857 17.5 15.5C17.5 15.3143 17.4276 15.1363 17.2986 15.005C17.1697 14.8737 16.9948 14.8 16.8125 14.8H7.1875C7.00516 14.8 6.8303 14.8737 6.70136 15.005C6.57243 15.1363 6.5 15.3143 6.5 15.5ZM6.5 12C6.5 12.3713 6.64487 12.7274 6.90273 12.9899C7.16059 13.2525 7.51033 13.4 7.875 13.4H16.125C16.4897 13.4 16.8394 13.2525 17.0973 12.9899C17.3551 12.7274 17.5 12.3713 17.5 12C17.5 11.6287 17.3551 11.2726 17.0973 11.0101C16.8394 10.7475 16.4897 10.6 16.125 10.6H7.875C7.51033 10.6 7.16059 10.7475 6.90273 11.0101C6.64487 11.2726 6.5 11.6287 6.5 12Z" fill="white"/>
</svg>
