<svg width="24" height="24" viewBox="0 0 24 24" fill="none" xmlns="http://www.w3.org/2000/svg">
<path d="M12.0708 5H12.1932C13.3235 5.00414 19.0508 5.04551 20.595 5.46201C21.0618 5.58912 21.4872 5.83688 21.8286 6.18054C22.1701 6.5242 22.4156 6.95172 22.5407 7.42037C22.6796 7.94443 22.7772 8.63813 22.8432 9.3539L22.857 9.49733L22.8872 9.8559L22.8982 9.99933C22.9876 11.2599 22.9986 12.4404 23 12.6983V12.8017C22.9986 13.0693 22.9862 14.3298 22.8872 15.6427L22.8762 15.7875L22.8639 15.931C22.7951 16.7198 22.6934 17.5032 22.5407 18.0796C22.4156 18.5483 22.1701 18.9758 21.8286 19.3195C21.4872 19.6631 21.0618 19.9109 20.595 20.038C18.9999 20.4683 12.9371 20.4986 12.0969 20.5H11.9017C11.4768 20.5 9.71942 20.4917 7.8768 20.4283L7.64304 20.42L7.52341 20.4145L7.28827 20.4048L7.05313 20.3952C5.52678 20.3276 4.07332 20.2187 3.40365 20.0366C2.93698 19.9096 2.5117 19.6621 2.17027 19.3187C1.82884 18.9753 1.58321 18.548 1.4579 18.0796C1.30527 17.5045 1.20351 16.7198 1.13476 15.931L1.12376 15.7861L1.11276 15.6427C1.0445 14.7082 1.0069 13.7718 1 12.8348L1 12.6652C1.00275 12.3687 1.01375 11.344 1.08801 10.2131L1.09763 10.071L1.10176 9.99933L1.11276 9.8559L1.14301 9.49733L1.15676 9.3539C1.22276 8.63813 1.3204 7.94306 1.45928 7.42037C1.58437 6.95172 1.82991 6.5242 2.17135 6.18054C2.5128 5.83688 2.93819 5.58912 3.40503 5.46201C4.07469 5.28272 5.52816 5.17239 7.0545 5.10343L7.28827 5.09378L7.52478 5.08551L7.64304 5.08137L7.87818 5.07171C9.18686 5.02952 10.4961 5.00607 11.8054 5.00138L12.0708 5ZM9.80055 9.427V16.0716L15.5168 12.7507L9.80055 9.427Z" fill="white"/>
</svg>
