<svg width="24" height="25" viewBox="0 0 24 25" fill="none" xmlns="http://www.w3.org/2000/svg">
<g clip-path="url(#clip0_1335_2440)">
<path d="M0 0.5H24V24.5H0V0.5Z" fill="#000066"/>
<path fill-rule="evenodd" clip-rule="evenodd" d="M2.57344 17.7781L4.47656 18.5L5.10469 16.5594L5.72812 18.5L7.63594 17.7781L6.50625 19.4797L8.25937 20.5203L6.22969 20.6938L6.51094 22.7141L5.10469 21.2375L3.69844 22.7141L3.97969 20.6985L1.94531 20.5203L3.70312 19.4797L2.57344 17.7781ZM18.9375 22.8313L18.0469 22.9063L18.1734 23.7875L17.5641 23.1453L16.9547 23.7875L17.0625 22.9063L16.1813 22.8313L16.9453 22.3813L16.4531 21.6406L17.2828 21.9547L17.5547 21.111L17.8219 21.9547L18.6562 21.6406L18.1688 22.3813L18.9375 22.8313ZM18.9281 9.70627L18.0469 9.78127L18.1688 10.6625L17.5594 10.0203L16.95 10.6625L17.0625 9.78127L16.1813 9.70627L16.9453 9.25627L16.4531 8.51565L17.2828 8.82971L17.5547 7.98596L17.8219 8.82971L18.6562 8.51565L18.1688 9.25627L18.9281 9.70627ZM14.0062 15.0406L13.125 15.1156L13.2469 15.9922L12.6375 15.35L12.0281 15.9922L12.1453 15.1156L11.2641 15.0406L12.0281 14.586L11.5359 13.85L12.3656 14.1641L12.6375 13.3203L12.9047 14.1641L13.7344 13.85L13.2469 14.586L14.0062 15.0406ZM23.2969 13.7281L22.4156 13.8031L22.5375 14.6797L21.9281 14.0375L21.3187 14.6797L21.4359 13.8031L20.5547 13.7281L21.3187 13.2735L20.8266 12.5375L21.6562 12.8516L21.9281 12.0078L22.2 12.8516L23.025 12.5375L22.5375 13.2735L23.2969 13.7281ZM19.5281 17.1406L19.0453 17.4406L19.1813 16.8875L18.7453 16.5219L19.3078 16.4797L19.5281 15.9547L19.7344 16.4844L20.3016 16.5313L19.8703 16.8922L20.0062 17.4453" fill="white"/>
<path d="M0 0.5H12V12.5H0V0.5Z" fill="#000066"/>
<path d="M12 0.5V2L7.54688 6.5L12 10.8828V12.5H10.4297L5.95312 8.09375L1.59375 12.5H0V10.9062L4.35938 6.52344L0 2.23438V0.5H1.45312L5.95312 4.90625L10.3125 0.5H12Z" fill="white"/>
<path d="M4.3125 8.09375L4.57031 8.89062L0.984375 12.5H0V12.4297L4.3125 8.09375ZM7.21875 7.8125L8.48438 8L12 11.4453V12.5L7.21875 7.8125ZM12 0.5L7.5 5.09375L7.40625 4.0625L10.9219 0.5H12ZM0 0.523438L4.52344 4.95312L3.14062 4.76562L0 1.64844V0.523438Z" fill="#C8102E"/>
<path d="M4.125 0.5V12.5H7.875V0.5H4.125ZM0 4.625V8.375H12V4.625H0Z" fill="white"/>
<path d="M0 5.375V7.625H12V5.375H0ZM4.875 0.5V12.5H7.125V0.5H4.875Z" fill="#C8102E"/>
</g>
<defs>
<clipPath id="clip0_1335_2440">
<rect y="0.5" width="24" height="24" rx="12" fill="white"/>
</clipPath>
</defs>
</svg>
