<svg width="32" height="25" viewBox="0 0 32 25" fill="none" xmlns="http://www.w3.org/2000/svg">
<g clip-path="url(#clip0_1335_2296)">
<path d="M0 0.5H32V24.5H0V0.5Z" fill="#000066"/>
<path fill-rule="evenodd" clip-rule="evenodd" d="M14.99 20.125L12.805 20.315L13.105 22.485L11.6 20.9L10.095 22.485L10.395 20.315L8.20996 20.125L10.095 19.01L8.87996 17.185L10.93 17.96L11.6 15.875L12.275 17.96L14.325 17.185L13.11 19.01L14.99 20.125ZM24.33 22.125L23.8 21.335L24.69 21.67L24.98 20.765L25.27 21.67L26.16 21.335L25.635 22.125L26.455 22.61L25.505 22.695L25.635 23.64L24.985 22.945L24.325 23.64L24.455 22.695L23.505 22.615L24.33 22.125ZM24.325 8.02003L23.8 7.23003L24.69 7.56503L24.98 6.66003L25.27 7.56503L26.16 7.23003L25.635 8.02003L26.455 8.51003L25.505 8.59003L25.635 9.53503L24.985 8.84503L24.325 9.53003L24.455 8.59003L23.505 8.51003L24.325 8.02003ZM19.04 13.75L18.515 12.96L19.405 13.295L19.695 12.39L19.99 13.295L20.88 12.96L20.35 13.75L21.17 14.235L20.22 14.32L20.355 15.265L19.695 14.57L19.045 15.265L19.17 14.32L18.22 14.24L19.04 13.75ZM29.035 12.34L28.5 11.55L29.39 11.885L29.68 10.98L29.975 11.885L30.865 11.55L30.34 12.34L31.155 12.825L30.205 12.91L30.335 13.85L29.685 13.16L29.025 13.85L29.155 12.91L28.205 12.825L29.035 12.34ZM27.1 16.5L26.585 16.825L26.73 16.23L26.265 15.84L26.87 15.79L27.1 15.23L27.335 15.795L27.94 15.84L27.475 16.23L27.62 16.825" fill="white"/>
<path d="M0 0.5H16V12.5H0V0.5Z" fill="#000066"/>
<path d="M1.875 0.5L7.975 5.025L14.05 0.5H16V2.05L10 6.525L16 10.975V12.5H14L8 8.025L2.025 12.5H0V11L5.975 6.55L0 2.1V0.5H1.875Z" fill="white"/>
<path d="M10.6 7.525L16 11.5V12.5L9.225 7.525H10.6ZM6 8.025L6.15 8.9L1.35 12.5H0L6 8.025ZM16 0.5V0.575L9.775 5.275L9.825 4.175L14.75 0.5H16ZM0 0.5L5.975 4.9H4.475L0 1.55V0.5Z" fill="#C8102E"/>
<path d="M6.025 0.5V12.5H10.025V0.5H6.025ZM0 4.5V8.5H16V4.5H0Z" fill="white"/>
<path d="M0 5.325V7.725H16V5.325H0ZM6.825 0.5V12.5H9.225V0.5H6.825Z" fill="#C8102E"/>
</g>
<defs>
<clipPath id="clip0_1335_2296">
<path d="M0 2.5C0 1.39543 0.895431 0.5 2 0.5H30C31.1046 0.5 32 1.39543 32 2.5V22.5C32 23.6046 31.1046 24.5 30 24.5H2C0.895431 24.5 0 23.6046 0 22.5V2.5Z" fill="white"/>
</clipPath>
</defs>
</svg>
