<svg width="32" height="25" viewBox="0 0 32 25" fill="none" xmlns="http://www.w3.org/2000/svg">
<g clip-path="url(#clip0_1335_2290)">
<path d="M7.50684 0.5H24.4896V24.5H7.50684V0.5Z" fill="white"/>
<path d="M-0.982422 0.5H7.50664V24.5H-0.982422V0.5ZM24.4895 0.5H32.9785V24.5H24.4941L24.4895 0.5ZM10.052 12.0969L9.38633 12.3219L12.4566 15.0172C12.691 15.7063 12.377 15.9078 12.1754 16.2734L15.5035 15.8516L15.4238 19.2031L16.1176 19.1844L15.9629 15.8563L19.3004 16.2547C19.0941 15.8188 18.9113 15.5891 19.0988 14.8953L22.1645 12.3406L21.6301 12.1437C21.1895 11.8062 21.8176 10.5172 21.9113 9.70156C21.9113 9.70156 20.1254 10.3156 20.0082 9.99219L19.5488 9.11563L17.9223 10.9062C17.7441 10.9484 17.6691 10.8781 17.627 10.7281L18.377 6.9875L17.1863 7.65781C17.0879 7.70469 16.9895 7.66719 16.9238 7.55L15.7754 5.25313L14.5941 7.63906C14.5051 7.72344 14.416 7.73281 14.341 7.67656L13.2066 7.03906L13.891 10.7469C13.8348 10.8969 13.7035 10.9344 13.5535 10.8547L11.9926 9.0875C11.791 9.41562 11.6551 9.94531 11.3832 10.0672C11.116 10.1797 10.2113 9.84219 9.60664 9.71094C9.81289 10.4563 10.4598 11.6938 10.052 12.1016V12.0969Z" fill="#D52B1E"/>
</g>
<defs>
<clipPath id="clip0_1335_2290">
<path d="M0 2.5C0 1.39543 0.895431 0.5 2 0.5H30C31.1046 0.5 32 1.39543 32 2.5V22.5C32 23.6046 31.1046 24.5 30 24.5H2C0.895431 24.5 0 23.6046 0 22.5V2.5Z" fill="white"/>
</clipPath>
</defs>
</svg>
