<svg width="24" height="25" viewBox="0 0 24 25" fill="none" xmlns="http://www.w3.org/2000/svg">
<g clip-path="url(#clip0_1335_2439)">
<path d="M3.80176 0.5H20.7846V24.5H3.80176V0.5Z" fill="white"/>
<path d="M-4.6875 0.5H3.80156V24.5H-4.6875V0.5ZM20.7844 0.5H29.2734V24.5H20.7844V0.5ZM6.34219 12.0969L5.68594 12.3219L8.75156 15.0172C8.98594 15.7109 8.67188 15.9125 8.47031 16.2781L11.7984 15.8563L11.7141 19.2078L12.4078 19.1844L12.2531 15.8609L15.5906 16.2547C15.3844 15.8188 15.2016 15.5891 15.3891 14.8953L18.4547 12.3406L17.9203 12.1484C17.4797 11.8062 18.1078 10.5172 18.2016 9.70156C18.2016 9.70156 16.4156 10.3156 16.2984 9.99219L15.8344 9.125L14.2125 10.9062C14.0344 10.9531 13.9594 10.8781 13.9172 10.7281L14.6672 6.99219L13.4766 7.6625C13.3781 7.70469 13.2797 7.6625 13.2141 7.55L12.0656 5.25313L10.8844 7.63906C10.7953 7.72344 10.7062 7.73281 10.6312 7.67656L9.49688 7.03906L10.1766 10.7516C10.125 10.8922 9.99375 10.9391 9.84375 10.8594L8.28281 9.0875C8.08125 9.41562 7.94063 9.95 7.67344 10.0719C7.40625 10.1797 6.50156 9.84219 5.89688 9.71094C6.10313 10.4563 6.75 11.6938 6.34219 12.1016V12.0969Z" fill="#D52B1E"/>
</g>
<defs>
<clipPath id="clip0_1335_2439">
<rect y="0.5" width="24" height="24" rx="12" fill="white"/>
</clipPath>
</defs>
</svg>
