<svg width="32" height="25" viewBox="0 0 32 25" fill="none" xmlns="http://www.w3.org/2000/svg">
<g clip-path="url(#clip0_1335_2291)">
<path fill-rule="evenodd" clip-rule="evenodd" d="M0 0.5H32V24.5H0V0.5Z" fill="#012169"/>
<path d="M28.5234 10.3013L29.3598 10.909L29.3599 10.9091L29.0403 9.9257L29.8768 9.31795L28.8429 9.31794L28.5234 8.33467L28.5234 8.33459L28.2039 9.31794L27.1699 9.31795L28.0064 9.9257L27.6869 10.909L27.6869 10.9091L28.5234 10.3013Z" fill="white"/>
<path d="M27.6855 9.48569L28.2032 9.86176L28.0054 10.4703L28.5231 10.0942L29.0407 10.4703L28.843 9.86176L29.3606 9.48569L28.7208 9.48569L28.5231 8.8772L28.3254 9.48569L27.6855 9.48569Z" fill="#C8102E"/>
<path d="M19.8979 11.5808L20.8379 12.2638L20.8379 12.2638L20.4789 11.1588L21.4189 10.4758L20.257 10.4758L19.8979 9.37073L19.5389 10.4758L18.377 10.4758L19.3169 11.1587L18.9579 12.2637L18.9579 12.2638L18.9579 12.2638L19.8979 11.5808Z" fill="white"/>
<path d="M18.8926 10.6434L19.5137 11.0947L19.2765 11.8249L19.8976 11.3736L20.5188 11.8249L20.2815 11.0947L20.9027 10.6434L20.1349 10.6434L19.8976 9.91321L19.6604 10.6434L18.8926 10.6434Z" fill="#C8102E"/>
<path d="M24.543 19.0358L25.5865 19.794L25.1879 18.5672L26.2314 17.809L24.9416 17.809L24.543 16.5823L24.1443 17.809L22.8545 17.809L23.898 18.5672L23.4994 19.794L24.543 19.0358Z" fill="white"/>
<path d="M24.0948 18.5032L23.3701 17.9767L24.2659 17.9767L24.5426 17.125L24.5427 17.1248L24.5427 17.1248L24.5427 17.1248L24.5427 17.125L24.8195 17.9767L25.7152 17.9767L24.9906 18.5032L25.2674 19.3551L24.5427 18.8286L23.818 19.3551L24.0948 18.5032Z" fill="#C8102E"/>
<path d="M24.5424 6.90786L25.4824 7.59078L25.4825 7.59084L25.1234 6.48578L26.0634 5.80281L24.9015 5.80281L24.5424 4.69775L24.1834 5.80281L23.0215 5.80281L23.9615 6.48576L23.6025 7.5907L23.6024 7.59084L23.6024 7.59082L24.5424 6.90786Z" fill="white"/>
<path d="M23.5371 5.97045L24.1583 6.42174L23.921 7.15197L24.5422 6.70066L25.1633 7.15196L24.9261 6.42174L25.5472 5.97045L24.7794 5.97045L24.5422 5.24023L24.3049 5.97045L23.5371 5.97045Z" fill="#C8102E"/>
<path d="M0 0.5H16V12.5H0V0.5Z" fill="#012169"/>
<path d="M1.875 0.5L7.975 5.025L14.05 0.5H16V2.05L10 6.525L16 10.975V12.5H14L8 8.025L2.025 12.5H0V11L5.975 6.55L0 2.1V0.5H1.875Z" fill="white"/>
<path d="M10.6 7.525L16 11.5V12.5L9.225 7.525H10.6ZM6 8.025L6.15 8.9L1.35 12.5H0L6 8.025ZM16 0.5V0.575L9.775 5.275L9.825 4.175L14.75 0.5H16ZM0 0.5L5.975 4.9H4.475L0 1.55V0.5Z" fill="#C8102E"/>
<path d="M6.025 0.5V12.5H10.025V0.5H6.025ZM0 4.5V8.5H16V4.5H0Z" fill="white"/>
<path d="M0 5.325V7.725H16V5.325H0ZM6.825 0.5V12.5H9.225V0.5H6.825Z" fill="#C8102E"/>
</g>
<defs>
<clipPath id="clip0_1335_2291">
<path d="M0 2.5C0 1.39543 0.895431 0.5 2 0.5H30C31.1046 0.5 32 1.39543 32 2.5V22.5C32 23.6046 31.1046 24.5 30 24.5H2C0.895431 24.5 0 23.6046 0 22.5V2.5Z" fill="white"/>
</clipPath>
</defs>
</svg>
