<svg width="24" height="25" viewBox="0 0 24 25" fill="none" xmlns="http://www.w3.org/2000/svg">
<g clip-path="url(#clip0_1335_2437)">
<path fill-rule="evenodd" clip-rule="evenodd" d="M0 0.5H24V24.5H0V0.5Z" fill="#012169"/>
<path d="M21.9286 10.6763L22.7651 11.284L22.7651 11.2841L22.4456 10.3007L23.2821 9.69295L22.2481 9.69294L21.9286 8.70967L21.9286 8.70959L21.6091 9.69294L20.5752 9.69295L21.4117 10.3007L21.0922 11.284L21.0922 11.2841L21.9286 10.6763Z" fill="white"/>
<path d="M21.0908 9.86069L21.6084 10.2368L21.4107 10.8453L21.9284 10.4692L22.446 10.8453L22.2483 10.2368L22.7659 9.86069L22.1261 9.86069L21.9284 9.2522L21.7307 9.86069L21.0908 9.86069Z" fill="#C8102E"/>
<path d="M14.3032 11.9558L15.2431 12.6388L15.2432 12.6388L14.8841 11.5338L15.8242 10.8508L14.6622 10.8508L14.3032 9.74573L13.9441 10.8508L12.7822 10.8508L13.7222 11.5337L13.3632 12.6387L13.3631 12.6388L13.3632 12.6388L14.3032 11.9558Z" fill="white"/>
<path d="M13.2979 11.0184L13.919 11.4697L13.6817 12.1999L14.3029 11.7486L14.9241 12.1999L14.6868 11.4697L15.308 11.0184L14.5402 11.0184L14.3029 10.2882L14.0656 11.0184L13.2979 11.0184Z" fill="#C8102E"/>
<path d="M17.9482 19.4108L18.9918 20.169L18.5932 18.9422L19.6367 18.184L18.3468 18.184L17.9482 16.9573L17.5496 18.184L16.2598 18.184L17.3033 18.9422L16.9047 20.169L17.9482 19.4108Z" fill="white"/>
<path d="M17.5001 18.8782L16.7754 18.3517L17.6712 18.3517L17.9479 17.5L17.9479 17.4998L17.9479 17.4998L17.948 17.4998L17.948 17.5L18.2247 18.3517L19.1205 18.3517L18.3958 18.8782L18.6726 19.7301L17.9479 19.2036L17.2233 19.7301L17.5001 18.8782Z" fill="#C8102E"/>
<path d="M17.9477 7.28286L18.8877 7.96578L18.8877 7.96584L18.5287 6.86078L19.4687 6.17781L18.3068 6.17781L17.9477 5.07275L17.5887 6.17781L16.4268 6.17781L17.3668 6.86076L17.0077 7.9657L17.0077 7.96584L17.0077 7.96582L17.9477 7.28286Z" fill="white"/>
<path d="M16.9424 6.34545L17.5635 6.79674L17.3263 7.52697L17.9474 7.07566L18.5686 7.52696L18.3313 6.79674L18.9525 6.34545L18.1847 6.34545L17.9474 5.61523L17.7102 6.34545L16.9424 6.34545Z" fill="#C8102E"/>
<path d="M0 0.5H12V12.5H0V0.5Z" fill="#012169"/>
<path d="M12 0.5V2L7.54688 6.5L12 10.8828V12.5H10.4297L5.95312 8.09375L1.59375 12.5H0V10.9062L4.35938 6.52344L0 2.23438V0.5H1.45312L5.95312 4.90625L10.3125 0.5H12Z" fill="white"/>
<path d="M4.3125 8.09375L4.57031 8.89062L0.984375 12.5H0V12.4297L4.3125 8.09375ZM7.21875 7.8125L8.48438 8L12 11.4453V12.5L7.21875 7.8125ZM12 0.5L7.5 5.09375L7.40625 4.0625L10.9219 0.5H12ZM0 0.523438L4.52344 4.95312L3.14062 4.76562L0 1.64844V0.523438Z" fill="#C8102E"/>
<path d="M4.125 0.5V12.5H7.875V0.5H4.125ZM0 4.625V8.375H12V4.625H0Z" fill="white"/>
<path d="M0 5.375V7.625H12V5.375H0ZM4.875 0.5V12.5H7.125V0.5H4.875Z" fill="#C8102E"/>
</g>
<defs>
<clipPath id="clip0_1335_2437">
<rect y="0.5" width="24" height="24" rx="12" fill="white"/>
</clipPath>
</defs>
</svg>
