<svg width="32" height="25" viewBox="0 0 32 25" fill="none" xmlns="http://www.w3.org/2000/svg">
<g clip-path="url(#clip0_1335_2293)">
<path d="M0 0.5H32V24.5H0V0.5Z" fill="#012169"/>
<path d="M3.75 0.5L15.95 9.55L28.1 0.5H32V3.6L20 12.55L32 21.45V24.5H28L16 15.55L4.05 24.5H0V21.5L11.95 12.6L0 3.7V0.5H3.75Z" fill="white"/>
<path d="M21.2 14.55L32 22.5V24.5L18.45 14.55H21.2ZM12 15.55L12.3 17.3L2.7 24.5H0L12 15.55ZM32 0.5V0.65L19.55 10.05L19.65 7.85L29.5 0.5H32ZM0 0.5L11.95 9.3H8.95L0 2.6V0.5Z" fill="#C8102E"/>
<path d="M12.05 0.5V24.5H20.05V0.5H12.05ZM0 8.5V16.5H32V8.5H0Z" fill="white"/>
<path d="M0 10.15V14.95H32V10.15H0ZM13.65 0.5V24.5H18.45V0.5H13.65Z" fill="#C8102E"/>
</g>
<defs>
<clipPath id="clip0_1335_2293">
<path d="M0 2.5C0 1.39543 0.895431 0.5 2 0.5H30C31.1046 0.5 32 1.39543 32 2.5V22.5C32 23.6046 31.1046 24.5 30 24.5H2C0.895431 24.5 0 23.6046 0 22.5V2.5Z" fill="white"/>
</clipPath>
</defs>
</svg>
