<svg width="24" height="25" viewBox="0 0 24 25" fill="none" xmlns="http://www.w3.org/2000/svg">
<g clip-path="url(#clip0_852_36884)">
<path fill-rule="evenodd" clip-rule="evenodd" d="M0 0.5H45.6004V2.34617H0V0.5ZM0 4.19234H45.6004V6.03852H0V4.19234ZM0 7.88469H45.6004V9.73086H0V7.88469ZM0 11.577H45.6004V13.4232H0V11.577ZM0 15.2694H45.6004V17.1155H0V15.2694ZM0 18.9617H45.6004V20.8079H0V18.9617ZM0 22.6541H45.6004V24.5002H0V22.6541Z" fill="#BD3D44"/>
<path fill-rule="evenodd" clip-rule="evenodd" d="M0 2.34619H45.6004V4.19236H0V2.34619ZM0 6.03853H45.6004V7.88471H0V6.03853ZM0 9.73088H45.6004V11.577H0V9.73088ZM0 13.4232H45.6004V15.2694H0V13.4232ZM0 17.1156H45.6004V18.9617H0V17.1156ZM0 20.8079H45.6004V22.6541H0V20.8079Z" fill="white"/>
<path fill-rule="evenodd" clip-rule="evenodd" d="M0 0.5H18.2402V13.4232H0V0.5Z" fill="#192F5D"/>
<path fill-rule="evenodd" clip-rule="evenodd" d="M1.51414 1.05383L1.69876 1.57076H2.21568L1.79106 1.88461L1.95722 2.38308L1.51414 2.06923L1.10798 2.38308L1.27414 1.88461L0.831055 1.57076H1.38491L1.51414 1.05383ZM4.56032 1.05383L4.72648 1.57076H5.26187L4.81879 1.88461L5.0034 2.38308L4.56032 2.06923L4.11724 2.38308L4.30186 1.88461L3.85878 1.57076H4.39417L4.56032 1.05383ZM7.60651 1.05383L7.77266 1.57076H8.30805L7.86497 1.88461L8.04959 2.38308L7.60651 2.06923L7.16343 2.38308L7.34804 1.88461L6.90496 1.57076H7.44035L7.60651 1.05383ZM10.6342 1.05383L10.8188 1.57076H11.3358L10.9112 1.88461L11.0773 2.38308L10.6342 2.06923L10.2096 2.38308L10.3758 1.88461L9.93268 1.57076H10.4865L10.6342 1.05383ZM13.6804 1.05383L13.8466 1.57076H14.382L13.9389 1.88461L14.1235 2.38308L13.662 2.06923L13.2373 2.38308L13.4035 1.88461L12.9604 1.57076H13.4958L13.6804 1.05383ZM16.7266 1.05383L16.8928 1.57076H17.4281L16.9851 1.88461L17.1697 2.38308L16.7266 2.06923L16.2835 2.38308L16.4681 1.88461L16.0251 1.57076H16.5604L16.7266 1.05383ZM3.04646 2.34615L3.21262 2.86308H3.74801L3.30493 3.17693L3.48954 3.6754L3.04646 3.36155L2.60338 3.6754L2.788 3.17693L2.34492 2.86308H2.88031L3.04646 2.34615ZM6.07418 2.34615L6.2588 2.86308H6.77573L6.35111 3.17693L6.51727 3.6754L6.07418 3.36155L5.64956 3.6754L5.81572 3.17693L5.37264 2.86308H5.92649L6.07418 2.34615ZM9.12037 2.34615L9.28652 2.86308H9.82191L9.37883 3.17693L9.56345 3.6754L9.12037 3.36155L8.67729 3.6754L8.8619 3.17693L8.41882 2.86308H8.95421L9.12037 2.34615ZM12.1666 2.34615L12.3327 2.86308H12.8681L12.425 3.17693L12.6096 3.6754L12.1666 3.36155L11.7235 3.6754L11.9081 3.17693L11.465 2.86308H12.0004L12.1666 2.34615ZM15.1943 2.34615L15.3789 2.86308H15.8774L15.4527 3.17693L15.6189 3.6754L15.1758 3.36155L14.7512 3.6754L14.9174 3.17693L14.4743 2.86308H15.0281L15.1943 2.34615ZM1.5326 3.63847L1.68029 4.1554H2.23415L1.79106 4.46925L1.95722 4.96772L1.51414 4.65387L1.10798 4.96772L1.27414 4.46925L0.831055 4.1554H1.38491L1.5326 3.63847ZM4.56032 3.63847L4.72648 4.1554H5.26187L4.83725 4.46925L5.0034 4.96772L4.56032 4.65387L4.1357 4.96772L4.30186 4.46925L3.85878 4.1554H4.39417L4.56032 3.63847ZM7.60651 3.63847L7.77266 4.1554H8.30805L7.86497 4.46925L8.04959 4.96772L7.60651 4.65387L7.16343 4.96772L7.34804 4.46925L6.90496 4.1554H7.44035L7.60651 3.63847ZM10.6342 3.63847L10.8188 4.1554H11.3358L10.9112 4.46925L11.0773 4.96772L10.6342 4.65387L10.2096 4.96772L10.3758 4.46925L9.93268 4.1554H10.4865L10.6342 3.63847ZM13.6804 3.63847L13.8466 4.1554H14.382L13.9573 4.46925L14.1235 4.96772L13.6804 4.65387L13.2558 4.96772L13.4219 4.46925L12.9789 4.1554H13.5143L13.6804 3.63847ZM16.7266 3.63847L16.8928 4.1554H17.4281L16.9851 4.46925L17.1697 4.96772L16.7266 4.65387L16.2835 4.96772L16.4681 4.46925L16.0251 4.1554H16.5604L16.7266 3.63847ZM3.04646 4.93079L3.21262 5.44772H3.74801L3.30493 5.76157L3.48954 6.26004L3.04646 5.94619L2.60338 6.26004L2.788 5.76157L2.34492 5.44772H2.88031L3.04646 4.93079ZM6.07418 4.93079L6.2588 5.44772H6.77573L6.35111 5.76157L6.51727 6.26004L6.07418 5.94619L5.64956 6.26004L5.81572 5.76157L5.37264 5.44772H5.92649L6.07418 4.93079ZM9.12037 4.93079L9.28652 5.44772H9.82191L9.39729 5.76157L9.56345 6.26004L9.12037 5.94619L8.69575 6.26004L8.8619 5.76157L8.41882 5.44772H8.95421L9.12037 4.93079ZM12.1666 4.93079L12.3327 5.44772H12.8681L12.425 5.76157L12.6096 6.26004L12.1666 5.94619L11.7235 6.26004L11.9081 5.76157L11.465 5.44772H12.0004L12.1666 4.93079ZM15.1943 4.93079L15.3789 5.44772H15.8774L15.4527 5.76157L15.6189 6.26004L15.1758 5.94619L14.7512 6.26004L14.9174 5.76157L14.4743 5.44772H15.0281L15.1943 4.93079ZM1.5326 6.22311L1.68029 6.74004H2.23415L1.79106 7.05389L1.95722 7.55236L1.51414 7.23851L1.10798 7.55236L1.27414 7.05389L0.831055 6.74004H1.38491L1.5326 6.22311ZM4.56032 6.22311L4.72648 6.74004H5.26187L4.83725 7.05389L5.0034 7.55236L4.56032 7.23851L4.1357 7.55236L4.30186 7.05389L3.85878 6.74004H4.39417L4.56032 6.22311ZM7.60651 6.22311L7.77266 6.74004H8.30805L7.86497 7.05389L8.04959 7.55236L7.60651 7.23851L7.16343 7.55236L7.34804 7.05389L6.90496 6.74004H7.44035L7.60651 6.22311ZM10.6342 6.22311L10.8188 6.74004H11.3358L10.9112 7.05389L11.0773 7.55236L10.6342 7.23851L10.2096 7.55236L10.3758 7.05389L9.93268 6.74004H10.4865L10.6342 6.22311ZM13.6804 6.22311L13.8466 6.74004H14.382L13.9573 7.05389L14.1235 7.55236L13.6804 7.23851L13.2558 7.55236L13.4219 7.05389L12.9789 6.74004H13.5143L13.6804 6.22311ZM16.7266 6.22311L16.8928 6.74004H17.4281L16.9851 7.05389L17.1697 7.55236L16.7266 7.23851L16.2835 7.55236L16.4681 7.05389L16.0251 6.74004H16.5604L16.7266 6.22311ZM3.04646 7.51543L3.21262 8.03236H3.74801L3.30493 8.34621L3.48954 8.84468L3.04646 8.53083L2.60338 8.84468L2.788 8.34621L2.34492 8.03236H2.88031L3.04646 7.51543ZM6.07418 7.51543L6.2588 8.03236H6.77573L6.35111 8.34621L6.51727 8.84468L6.07418 8.53083L5.64956 8.84468L5.81572 8.34621L5.37264 8.03236H5.92649L6.07418 7.51543ZM9.12037 7.51543L9.28652 8.03236H9.82191L9.39729 8.34621L9.56345 8.84468L9.12037 8.53083L8.69575 8.84468L8.8619 8.34621L8.41882 8.03236H8.95421L9.12037 7.51543ZM12.1666 7.51543L12.3327 8.03236H12.8681L12.425 8.34621L12.6096 8.84468L12.1666 8.53083L11.7235 8.84468L11.9081 8.34621L11.465 8.03236H12.0004L12.1666 7.51543ZM15.1943 7.51543L15.3789 8.03236H15.8774L15.4527 8.34621L15.6189 8.84468L15.1758 8.53083L14.7512 8.84468L14.9174 8.34621L14.4743 8.03236H15.0281L15.1943 7.51543ZM1.5326 8.80775L1.68029 9.32468H2.23415L1.79106 9.63853L1.95722 10.137L1.51414 9.82315L1.10798 10.137L1.27414 9.63853L0.831055 9.32468H1.38491L1.5326 8.80775ZM4.56032 8.80775L4.72648 9.32468H5.26187L4.83725 9.63853L5.0034 10.137L4.56032 9.82315L4.1357 10.137L4.30186 9.63853L3.85878 9.32468H4.39417L4.56032 8.80775ZM7.60651 8.80775L7.77266 9.32468H8.30805L7.86497 9.63853L8.04959 10.137L7.60651 9.82315L7.16343 10.137L7.34804 9.63853L6.90496 9.32468H7.44035L7.60651 8.80775ZM10.6342 8.80775L10.8188 9.32468H11.3358L10.9112 9.63853L11.0773 10.137L10.6342 9.82315L10.2096 10.137L10.3758 9.63853L9.93268 9.32468H10.4865L10.6342 8.80775ZM13.6804 8.80775L13.8466 9.32468H14.382L13.9573 9.63853L14.1235 10.137L13.6804 9.82315L13.2558 10.137L13.4219 9.63853L12.9789 9.32468H13.5143L13.6804 8.80775ZM16.7266 8.80775L16.8928 9.32468H17.4281L16.9851 9.63853L17.1697 10.137L16.7266 9.82315L16.2835 10.137L16.4681 9.63853L16.0251 9.32468H16.5604L16.7266 8.80775ZM3.04646 10.1001L3.21262 10.617H3.74801L3.30493 10.9309L3.48954 11.4293L3.04646 11.1155L2.60338 11.4293L2.788 10.9309L2.34492 10.617H2.88031L3.04646 10.1001ZM6.07418 10.1001L6.2588 10.617H6.77573L6.35111 10.9309L6.51727 11.4293L6.07418 11.1155L5.64956 11.4293L5.81572 10.9309L5.37264 10.617H5.92649L6.07418 10.1001ZM9.12037 10.1001L9.28652 10.617H9.82191L9.39729 10.9309L9.56345 11.4293L9.12037 11.1155L8.69575 11.4293L8.8619 10.9309L8.41882 10.617H8.95421L9.12037 10.1001ZM12.1666 10.1001L12.3327 10.617H12.8681L12.425 10.9309L12.6096 11.4293L12.1666 11.1155L11.7235 11.4293L11.9081 10.9309L11.465 10.617H12.0004L12.1666 10.1001ZM15.1943 10.1001L15.3789 10.617H15.8774L15.4527 10.9309L15.6189 11.4293L15.1758 11.1155L14.7512 11.4293L14.9174 10.9309L14.4743 10.617H15.0281L15.1943 10.1001ZM1.5326 11.3924L1.68029 11.9093H2.23415L1.79106 12.2232L1.95722 12.7216L1.51414 12.4078L1.10798 12.7216L1.27414 12.2232L0.831055 11.9093H1.38491L1.5326 11.3924ZM4.56032 11.3924L4.72648 11.9093H5.26187L4.83725 12.2232L5.0034 12.7216L4.56032 12.4078L4.1357 12.7216L4.30186 12.2232L3.85878 11.9093H4.39417L4.56032 11.3924ZM7.60651 11.3924L7.77266 11.9093H8.30805L7.86497 12.2232L8.04959 12.7216L7.60651 12.4078L7.16343 12.7216L7.34804 12.2232L6.90496 11.9093H7.44035L7.60651 11.3924ZM10.6342 11.3924L10.8188 11.9093H11.3358L10.9112 12.2232L11.0773 12.7216L10.6342 12.4078L10.2096 12.7216L10.3758 12.2232L9.93268 11.9093H10.4865L10.6342 11.3924ZM13.6804 11.3924L13.8466 11.9093H14.382L13.9573 12.2232L14.1235 12.7216L13.6804 12.4078L13.2558 12.7216L13.4219 12.2232L12.9789 11.9093H13.5143L13.6804 11.3924ZM16.7266 11.3924L16.8928 11.9093H17.4281L16.9851 12.2232L17.1697 12.7216L16.7266 12.4078L16.2835 12.7216L16.4681 12.2232L16.0251 11.9093H16.5604L16.7266 11.3924Z" fill="white"/>
</g>
<defs>
<clipPath id="clip0_852_36884">
<rect y="0.5" width="24" height="24" rx="12" fill="white"/>
</clipPath>
</defs>
</svg>
