<svg width="32" height="25" viewBox="0 0 32 25" fill="none" xmlns="http://www.w3.org/2000/svg">
<g clip-path="url(#clip0_1335_2292)">
<path fill-rule="evenodd" clip-rule="evenodd" d="M0 0.5H45.6V2.34688H0V0.5ZM0 4.19375H45.6V6.04062H0V4.19375ZM0 7.88281H45.6V9.73438H0V7.88281ZM0 11.5766H45.6V13.4234H0V11.5766ZM0 15.2703H45.6V17.1172H0V15.2703ZM0 18.9594H45.6V20.8063H0V18.9594ZM0 22.6531H45.6V24.5H0V22.6531Z" fill="#BD3D44"/>
<path fill-rule="evenodd" clip-rule="evenodd" d="M0 2.34692H45.6V4.1938H0V2.34692ZM0 6.04067H45.6V7.88286H0V6.04067ZM0 9.72974H45.6V11.5766H0V9.72974ZM0 13.4235H45.6V15.2704H0V13.4235ZM0 17.1172H45.6V18.9641H0V17.1172ZM0 20.8063H45.6V22.6532H0V20.8063Z" fill="white"/>
<path fill-rule="evenodd" clip-rule="evenodd" d="M0 0.5H18.2391V13.4234H0V0.5Z" fill="#192F5D"/>
<path fill-rule="evenodd" clip-rule="evenodd" d="M1.51855 1.0531L1.6873 1.56404H2.22168L1.79043 1.8781L1.95449 2.39373L1.51855 2.07498L1.0873 2.38904L1.25137 1.8781L0.81543 1.56404H1.35918L1.51855 1.0531ZM4.56074 1.0531L4.72481 1.56404H5.26387L4.82793 1.8781L4.99199 2.39373L4.56074 2.07498L4.1248 2.38904L4.28887 1.8781L3.85762 1.56404H4.39199L4.56074 1.0531ZM7.59824 1.0531L7.76699 1.56404H8.29668L7.86543 1.8781L8.02949 2.39373L7.59356 2.07498L7.16231 2.38904L7.32637 1.8781L6.89043 1.56404H7.42949L7.59824 1.0531ZM10.6404 1.0531L10.8045 1.56404H11.3436L10.9076 1.8781L11.0764 2.39373L10.6404 2.07498L10.2045 2.38904L10.3732 1.8781L9.93731 1.56404H10.4717L10.6404 1.0531ZM13.6779 1.0531L13.8467 1.56404H14.3811L13.9498 1.8781L14.1139 2.39373L13.6779 2.07498L13.2467 2.38904L13.4107 1.8781L12.9795 1.56404H13.5139L13.6779 1.0531ZM16.7201 1.0531L16.8842 1.56404H17.4232L16.9873 1.8781L17.1561 2.39373L16.7201 2.07498L16.2842 2.38904L16.4529 1.8781L16.017 1.56404H16.5561L16.7201 1.0531ZM3.04199 2.34685L3.20605 2.85779H3.74512L3.30918 3.17185L3.46855 3.68279L3.04668 3.36873L2.61074 3.68279L2.76543 3.17185L2.34355 2.85779H2.87793L3.04199 2.34685ZM6.07949 2.34685L6.24824 2.85779H6.78262L6.34668 3.17185L6.51543 3.68279L6.07949 3.36873L5.64356 3.68279L5.8123 3.17185L5.37637 2.85779H5.91543L6.07949 2.34685ZM9.12168 2.34685L9.28574 2.85779H9.82481L9.38887 3.17185L9.55293 3.68279L9.12168 3.36873L8.68574 3.68279L8.84981 3.17185L8.41856 2.85779H8.95293L9.12168 2.34685ZM12.1592 2.34685L12.3279 2.85779H12.8623L12.4264 3.17185L12.5951 3.68279L12.1592 3.36873L11.7279 3.68279L11.892 3.17185L11.4561 2.85779H11.9998L12.1592 2.34685ZM15.2014 2.34685L15.3654 2.85779H15.9045L15.4686 3.17185L15.6326 3.68279L15.2014 3.36873L14.7654 3.68279L14.9295 3.17185L14.4982 2.85779H15.0326L15.2014 2.34685ZM1.51855 3.63591L1.6873 4.15623H2.22168L1.79043 4.47029L1.95449 4.98123L1.51855 4.66248L1.0873 4.98123L1.25137 4.4656L0.81543 4.15154H1.35918L1.51855 3.63591ZM4.56074 3.63591L4.72481 4.15154H5.26387L4.82793 4.4656L4.99199 4.97654L4.56074 4.65779L4.1248 4.97654L4.28887 4.46091L3.85762 4.14685H4.39199L4.56074 3.63591ZM7.59824 3.63591L7.76699 4.15154H8.29668L7.86543 4.4656L8.02949 4.97654L7.59356 4.65779L7.16231 4.97654L7.32637 4.46091L6.89043 4.14685H7.42949L7.59824 3.63591ZM10.6404 3.63591L10.8045 4.15154H11.3436L10.9076 4.4656L11.0764 4.97654L10.6404 4.65779L10.2045 4.97654L10.3732 4.46091L9.93731 4.14685H10.4717L10.6404 3.63591ZM13.6779 3.63591L13.8467 4.15154H14.3811L13.9498 4.4656L14.1139 4.97654L13.6779 4.65779L13.2467 4.97654L13.4107 4.46091L12.9795 4.14685H13.5139L13.6779 3.63591ZM16.7201 3.63591L16.8842 4.15154H17.4232L16.9873 4.4656L17.1561 4.97654L16.7201 4.65779L16.2842 4.97654L16.4529 4.46091L16.017 4.14685H16.5561L16.7201 3.63591ZM3.04199 4.92966L3.20605 5.4406H3.74512L3.30918 5.75466L3.47324 6.27029L3.04199 5.95154L2.60605 6.2656L2.77012 5.75466L2.33887 5.4406H2.87324L3.04199 4.92966ZM6.07949 4.92966L6.24824 5.4406H6.78262L6.34668 5.75466L6.51543 6.27029L6.07949 5.95154L5.64356 6.2656L5.8123 5.75466L5.37637 5.4406H5.91543L6.07949 4.92966ZM9.12168 4.92966L9.28574 5.4406H9.82481L9.38887 5.75466L9.55293 6.27029L9.12168 5.95154L8.68574 6.2656L8.84981 5.75466L8.41856 5.4406H8.95293L9.12168 4.92966ZM12.1592 4.92966L12.3279 5.4406H12.8623L12.4311 5.75466L12.5951 6.27029L12.1592 5.95154L11.7279 6.2656L11.892 5.75466L11.4561 5.4406H11.9998L12.1592 4.92966ZM15.2014 4.92966L15.3654 5.4406H15.9045L15.4686 5.75466L15.6326 6.27029L15.2014 5.95154L14.7654 6.2656L14.9295 5.75466L14.4982 5.4406H15.0326L15.2014 4.92966ZM1.51855 6.22341L1.6873 6.73435H2.22168L1.79043 7.04841L1.95449 7.56404L1.51855 7.24529L1.0873 7.55935L1.25137 7.04841L0.81543 6.73435H1.35918L1.51855 6.22341ZM4.56074 6.22341L4.72481 6.73435H5.26387L4.82793 7.04841L4.99199 7.55935L4.56074 7.24529L4.1248 7.55935L4.28887 7.04841L3.85762 6.73435H4.39199L4.56074 6.22341ZM7.59824 6.22341L7.76699 6.73435H8.29668L7.86543 7.04841L8.02949 7.56404L7.59356 7.24529L7.16231 7.55935L7.32637 7.04841L6.89043 6.73435H7.42949L7.59824 6.22341ZM10.6404 6.22341L10.8045 6.73435H11.3436L10.9076 7.04841L11.0764 7.56404L10.6404 7.24529L10.2045 7.55935L10.3732 7.04841L9.93731 6.73435H10.4717L10.6404 6.22341ZM13.6779 6.22341L13.8467 6.73435H14.3811L13.9498 7.04841L14.1139 7.56404L13.6779 7.24529L13.2467 7.55935L13.4107 7.04841L12.9795 6.73435H13.5139L13.6779 6.22341ZM16.7201 6.22341L16.8842 6.73435H17.4232L16.9873 7.04841L17.1561 7.56404L16.7201 7.24529L16.2842 7.55935L16.4529 7.04841L16.017 6.73435H16.5561L16.7201 6.22341ZM3.04199 7.51716L3.20605 8.0281H3.74512L3.30918 8.34216L3.47324 8.8531L3.04199 8.53435L2.60605 8.8531L2.77012 8.33747L2.33887 8.02341H2.87324L3.04199 7.51716ZM6.07949 7.51716L6.24824 8.0281H6.78262L6.34668 8.34216L6.51543 8.8531L6.07949 8.53435L5.64356 8.8531L5.8123 8.33747L5.37637 8.02341H5.91543L6.07949 7.51716ZM9.12168 7.51716L9.28574 8.0281H9.82481L9.38887 8.34216L9.55293 8.8531L9.12168 8.53435L8.68574 8.8531L8.84981 8.33747L8.41856 8.02341H8.95293L9.12168 7.51716ZM12.1592 7.51716L12.3279 8.0281H12.8623L12.4311 8.34216L12.5951 8.8531L12.1592 8.53435L11.7279 8.8531L11.892 8.33747L11.4561 8.02341H11.9998L12.1592 7.51716ZM15.2014 7.51716L15.3654 8.0281H15.9045L15.4686 8.34216L15.6326 8.8531L15.2014 8.53435L14.7654 8.8531L14.9295 8.33747L14.4982 8.02341H15.0326L15.2014 7.51716ZM1.51855 8.80622L1.6873 9.32185H2.22168L1.79043 9.63591L1.95449 10.1422L1.51855 9.8281L1.0873 10.1422L1.25137 9.63122L0.81543 9.31716H1.35918L1.51855 8.80622ZM4.56074 8.80622L4.72481 9.32185H5.26387L4.82793 9.63591L4.99668 10.1422L4.56074 9.8281L4.1248 10.1422L4.29355 9.63122L3.85762 9.31716H4.39199L4.56074 8.80622ZM7.59824 8.80622L7.76699 9.32185H8.29668L7.86543 9.63591L8.02949 10.1422L7.59356 9.8281L7.16231 10.1422L7.32637 9.63122L6.89043 9.31716H7.42949L7.59824 8.80622ZM10.6404 8.80622L10.8045 9.32185H11.3436L10.9076 9.63591L11.0764 10.1422L10.6404 9.8281L10.2045 10.1422L10.3732 9.63122L9.93731 9.31716H10.4717L10.6404 8.80622ZM13.6779 8.80622L13.8467 9.32185H14.3811L13.9498 9.63591L14.1139 10.1422L13.6779 9.8281L13.2467 10.1422L13.4107 9.63122L12.9795 9.31716H13.5139L13.6779 8.80622ZM16.7201 8.80622L16.8842 9.32185H17.4232L16.9873 9.63591L17.1561 10.1422L16.7201 9.8281L16.2842 10.1422L16.4529 9.63122L16.017 9.31716H16.5561L16.7201 8.80622ZM3.04199 10.1L3.20605 10.6109H3.74512L3.30918 10.925L3.47324 11.4406L3.04199 11.1219L2.60605 11.4359L2.77012 10.925L2.33887 10.6109H2.87324L3.04199 10.1ZM6.07949 10.1L6.24824 10.6109H6.78262L6.34668 10.925L6.51543 11.4406L6.07949 11.1219L5.64356 11.4359L5.8123 10.925L5.37637 10.6109H5.91543L6.07949 10.1ZM9.12168 10.1L9.28574 10.6109H9.82481L9.38887 10.925L9.55293 11.4406L9.12168 11.1219L8.68574 11.4359L8.84981 10.925L8.41856 10.6109H8.95293L9.12168 10.1ZM12.1592 10.1L12.3279 10.6109H12.8623L12.4311 10.925L12.5951 11.4406L12.1592 11.1219L11.7279 11.4359L11.892 10.925L11.4561 10.6109H11.9998L12.1592 10.1ZM15.2014 10.1L15.3654 10.6109H15.9045L15.4686 10.925L15.6326 11.4406L15.2014 11.1219L14.7654 11.4359L14.9295 10.925L14.4982 10.6109H15.0326L15.2014 10.1ZM1.51855 11.3937L1.6873 11.9047H2.22168L1.79043 12.2187L1.95449 12.7297L1.51855 12.4156L1.0873 12.7297L1.25137 12.214L0.81543 11.9H1.35918L1.51855 11.3937ZM4.56074 11.3937L4.72481 11.9047H5.26387L4.82793 12.2187L4.99668 12.7297L4.56074 12.4156L4.1248 12.7297L4.29355 12.214L3.85762 11.9H4.39199L4.56074 11.3937ZM7.59824 11.3937L7.76699 11.9047H8.29668L7.87481 12.2187L8.03887 12.7297L7.60293 12.4156L7.17168 12.7297L7.33574 12.214L6.89981 11.9H7.43887L7.59824 11.3937ZM10.6404 11.3937L10.8045 11.9047H11.3436L10.9076 12.2187L11.0764 12.7297L10.6404 12.4156L10.2045 12.7297L10.3732 12.214L9.93731 11.9H10.4717L10.6404 11.3937ZM13.6779 11.3937L13.8467 11.9047H14.3811L13.9498 12.2187L14.1139 12.7297L13.6779 12.4156L13.2467 12.7297L13.4107 12.214L12.9795 11.9H13.5139L13.6779 11.3937ZM16.7201 11.3937L16.8842 11.9047H17.4232L16.9873 12.2187L17.1561 12.7297L16.7201 12.4156L16.2842 12.7297L16.4529 12.214L16.017 11.9H16.5561L16.7201 11.3937Z" fill="white"/>
</g>
<defs>
<clipPath id="clip0_1335_2292">
<path d="M0 2.5C0 1.39543 0.895431 0.5 2 0.5H30C31.1046 0.5 32 1.39543 32 2.5V22.5C32 23.6046 31.1046 24.5 30 24.5H2C0.895431 24.5 0 23.6046 0 22.5V2.5Z" fill="white"/>
</clipPath>
</defs>
</svg>
